<?xml version="1.0" encoding="UTF-8" standalone="no"?>
<!DOCTYPE svg PUBLIC "-//W3C//DTD SVG 1.1//EN"
 "http://www.w3.org/Graphics/SVG/1.1/DTD/svg11.dtd">
<!-- Generated by graphviz version 2.43.0 (0)
 -->
<!-- Title: AOWProjectile Pages: 1 -->
<svg width="153pt" height="247pt"
 viewBox="0.00 0.00 153.00 247.00" xmlns="http://www.w3.org/2000/svg" xmlns:xlink="http://www.w3.org/1999/xlink">
<g id="graph0" class="graph" transform="scale(1 1) rotate(0) translate(4 243)">
<title>AOWProjectile</title>
<!-- Node1 -->
<g id="Node000001" class="node">
<title>Node1</title>
<g id="a_Node000001"><a xlink:title=" ">
<polygon fill="#999999" stroke="transparent" points="145,-154 0,-154 0,0 145,0 145,-154"/>
<text text-anchor="start" x="38" y="-142" font-family="Helvetica,sans-Serif" font-size="10.00">AOWProjectile</text>
<text text-anchor="start" x="4.5" y="-127" font-family="Helvetica,sans-Serif" font-size="10.00">+</text>
<text text-anchor="start" x="17.5" y="-127" font-family="Helvetica,sans-Serif" font-size="10.00">DamageSpecHandle</text>
<text text-anchor="start" x="4.5" y="-112" font-family="Helvetica,sans-Serif" font-size="10.00">#</text>
<text text-anchor="start" x="17.5" y="-112" font-family="Helvetica,sans-Serif" font-size="10.00">CollisionComp</text>
<text text-anchor="start" x="4.5" y="-97" font-family="Helvetica,sans-Serif" font-size="10.00">#</text>
<text text-anchor="start" x="17.5" y="-97" font-family="Helvetica,sans-Serif" font-size="10.00">ProjectileMovement</text>
<text text-anchor="start" x="4.5" y="-82" font-family="Helvetica,sans-Serif" font-size="10.00">+</text>
<text text-anchor="start" x="17.5" y="-82" font-family="Helvetica,sans-Serif" font-size="10.00">AOWProjectile()</text>
<text text-anchor="start" x="4.5" y="-67" font-family="Helvetica,sans-Serif" font-size="10.00">+</text>
<text text-anchor="start" x="17.5" y="-67" font-family="Helvetica,sans-Serif" font-size="10.00">SetDamageSpecHandle()</text>
<text text-anchor="start" x="4.5" y="-52" font-family="Helvetica,sans-Serif" font-size="10.00">+</text>
<text text-anchor="start" x="17.5" y="-52" font-family="Helvetica,sans-Serif" font-size="10.00">GetCollisionComp()</text>
<text text-anchor="start" x="4.5" y="-37" font-family="Helvetica,sans-Serif" font-size="10.00">+</text>
<text text-anchor="start" x="17.5" y="-37" font-family="Helvetica,sans-Serif" font-size="10.00">GetProjectileMovement()</text>
<text text-anchor="start" x="4.5" y="-22" font-family="Helvetica,sans-Serif" font-size="10.00">#</text>
<text text-anchor="start" x="17.5" y="-22" font-family="Helvetica,sans-Serif" font-size="10.00">BeginPlay()</text>
<text text-anchor="start" x="4.5" y="-7" font-family="Helvetica,sans-Serif" font-size="10.00">#</text>
<text text-anchor="start" x="17.5" y="-7" font-family="Helvetica,sans-Serif" font-size="10.00">OnHit()</text>
<polygon fill="#666666" stroke="#666666" points="0.5,-137 0.5,-137 145.5,-137 145.5,-137 0.5,-137"/>
<polygon fill="#666666" stroke="#666666" points="0.5,-92 0.5,-92 15.5,-92 15.5,-92 0.5,-92"/>
<polygon fill="#666666" stroke="#666666" points="15.5,-92 15.5,-92 145.5,-92 145.5,-92 15.5,-92"/>
<polygon fill="none" stroke="#666666" points="0,0 0,-154 145,-154 145,0 0,0"/>
</a>
</g>
</g>
<!-- Node2 -->
<g id="Node000002" class="node">
<title>Node2</title>
<g id="a_Node000002"><a xlink:title=" ">
<polygon fill="white" stroke="transparent" points="94,-239 51,-239 51,-190 94,-190 94,-239"/>
<text text-anchor="start" x="56.5" y="-226.5" font-family="Helvetica,sans-Serif" font-size="10.00">AActor</text>
<text text-anchor="start" x="71" y="-211.5" font-family="Helvetica,sans-Serif" font-size="10.00"> </text>
<text text-anchor="start" x="71" y="-196.5" font-family="Helvetica,sans-Serif" font-size="10.00"> </text>
<polygon fill="#bfbfbf" stroke="#bfbfbf" points="51.5,-221.5 51.5,-221.5 94.5,-221.5 94.5,-221.5 51.5,-221.5"/>
<polygon fill="#bfbfbf" stroke="#bfbfbf" points="51.5,-206.5 51.5,-206.5 94.5,-206.5 94.5,-206.5 51.5,-206.5"/>
<polygon fill="none" stroke="#bfbfbf" points="51,-190 51,-239 94,-239 94,-190 51,-190"/>
</a>
</g>
</g>
<!-- Node2&#45;&gt;Node1 -->
<g id="edge1_Node000001_Node000002" class="edge">
<title>Node2&#45;&gt;Node1</title>
<g id="a_edge1_Node000001_Node000002"><a xlink:title=" ">
<path fill="none" stroke="#63b8ff" d="M72.5,-179.66C72.5,-171.74 72.5,-162.97 72.5,-154.01"/>
<polygon fill="none" stroke="#63b8ff" points="69,-179.9 72.5,-189.9 76,-179.9 69,-179.9"/>
</a>
</g>
</g>
</g>
</svg>
