<?xml version="1.0" encoding="UTF-8" standalone="no"?>
<!DOCTYPE svg PUBLIC "-//W3C//DTD SVG 1.1//EN"
 "http://www.w3.org/Graphics/SVG/1.1/DTD/svg11.dtd">
<!-- Generated by graphviz version 2.43.0 (0)
 -->
<!-- Title: UOWGA_Ultimate Pages: 1 -->
<svg width="144pt" height="272pt"
 viewBox="0.00 0.00 144.00 272.00" xmlns="http://www.w3.org/2000/svg" xmlns:xlink="http://www.w3.org/1999/xlink">
<g id="graph0" class="graph" transform="scale(1 1) rotate(0) translate(4 268)">
<title>UOWGA_Ultimate</title>
<!-- Node1 -->
<g id="Node000001" class="node">
<title>Node1</title>
<g id="a_Node000001"><a xlink:title=" ">
<polygon fill="#999999" stroke="transparent" points="126,-94 10,-94 10,0 126,0 126,-94"/>
<text text-anchor="start" x="24" y="-82" font-family="Helvetica,sans-Serif" font-size="10.00">UOWGA_Ultimate</text>
<text text-anchor="start" x="14" y="-67" font-family="Helvetica,sans-Serif" font-size="10.00">#</text>
<text text-anchor="start" x="27" y="-67" font-family="Helvetica,sans-Serif" font-size="10.00">UltCost</text>
<text text-anchor="start" x="14" y="-52" font-family="Helvetica,sans-Serif" font-size="10.00">+</text>
<text text-anchor="start" x="27" y="-52" font-family="Helvetica,sans-Serif" font-size="10.00">UOWGA_Ultimate()</text>
<text text-anchor="start" x="14" y="-37" font-family="Helvetica,sans-Serif" font-size="10.00">+</text>
<text text-anchor="start" x="27" y="-37" font-family="Helvetica,sans-Serif" font-size="10.00">CheckCost()</text>
<text text-anchor="start" x="14" y="-22" font-family="Helvetica,sans-Serif" font-size="10.00">+</text>
<text text-anchor="start" x="27" y="-22" font-family="Helvetica,sans-Serif" font-size="10.00">ApplyCost()</text>
<text text-anchor="start" x="14" y="-7" font-family="Helvetica,sans-Serif" font-size="10.00">+</text>
<text text-anchor="start" x="27" y="-7" font-family="Helvetica,sans-Serif" font-size="10.00">ActivateAbility()</text>
<polygon fill="#666666" stroke="#666666" points="10,-77 10,-77 126,-77 126,-77 10,-77"/>
<polygon fill="#666666" stroke="#666666" points="10,-62 10,-62 25,-62 25,-62 10,-62"/>
<polygon fill="#666666" stroke="#666666" points="25,-62 25,-62 126,-62 126,-62 25,-62"/>
<polygon fill="none" stroke="#666666" points="10,0 10,-94 126,-94 126,0 10,0"/>
</a>
</g>
</g>
<!-- Node2 -->
<g id="Node000002" class="node">
<title>Node2</title>
<g id="a_Node000002"><a xlink:href="classUOWGameplayAbility.html" target="_top" xlink:title=" ">
<polygon fill="white" stroke="transparent" points="136,-179 0,-179 0,-130 136,-130 136,-179"/>
<text text-anchor="start" x="14.5" y="-166.5" font-family="Helvetica,sans-Serif" font-size="10.00">UOWGameplayAbility</text>
<text text-anchor="start" x="66" y="-151.5" font-family="Helvetica,sans-Serif" font-size="10.00"> </text>
<text text-anchor="start" x="4" y="-136.5" font-family="Helvetica,sans-Serif" font-size="10.00">+</text>
<text text-anchor="start" x="17" y="-136.5" font-family="Helvetica,sans-Serif" font-size="10.00">UOWGameplayAbility()</text>
<polygon fill="#bfbfbf" stroke="#bfbfbf" points="0,-161.5 0,-161.5 136,-161.5 136,-161.5 0,-161.5"/>
<polygon fill="#bfbfbf" stroke="#bfbfbf" points="0,-146.5 0,-146.5 136,-146.5 136,-146.5 0,-146.5"/>
<polygon fill="none" stroke="#bfbfbf" points="0,-130 0,-179 136,-179 136,-130 0,-130"/>
</a>
</g>
</g>
<!-- Node2&#45;&gt;Node1 -->
<g id="edge1_Node000001_Node000002" class="edge">
<title>Node2&#45;&gt;Node1</title>
<g id="a_edge1_Node000001_Node000002"><a xlink:title=" ">
<path fill="none" stroke="#63b8ff" d="M68,-119.61C68,-111.48 68,-102.66 68,-94.08"/>
<polygon fill="none" stroke="#63b8ff" points="64.5,-119.82 68,-129.82 71.5,-119.82 64.5,-119.82"/>
</a>
</g>
</g>
<!-- Node3 -->
<g id="Node000003" class="node">
<title>Node3</title>
<g id="a_Node000003"><a xlink:title=" ">
<polygon fill="white" stroke="transparent" points="118,-264 18,-264 18,-215 118,-215 118,-264"/>
<text text-anchor="start" x="23" y="-251.5" font-family="Helvetica,sans-Serif" font-size="10.00">UGameplayAbility</text>
<text text-anchor="start" x="66" y="-236.5" font-family="Helvetica,sans-Serif" font-size="10.00"> </text>
<text text-anchor="start" x="66" y="-221.5" font-family="Helvetica,sans-Serif" font-size="10.00"> </text>
<polygon fill="#bfbfbf" stroke="#bfbfbf" points="18,-246.5 18,-246.5 118,-246.5 118,-246.5 18,-246.5"/>
<polygon fill="#bfbfbf" stroke="#bfbfbf" points="18,-231.5 18,-231.5 118,-231.5 118,-231.5 18,-231.5"/>
<polygon fill="none" stroke="#bfbfbf" points="18,-215 18,-264 118,-264 118,-215 18,-215"/>
</a>
</g>
</g>
<!-- Node3&#45;&gt;Node2 -->
<g id="edge2_Node000002_Node000003" class="edge">
<title>Node3&#45;&gt;Node2</title>
<g id="a_edge2_Node000002_Node000003"><a xlink:title=" ">
<path fill="none" stroke="#63b8ff" d="M68,-204.77C68,-196.17 68,-187.1 68,-179.12"/>
<polygon fill="none" stroke="#63b8ff" points="64.5,-204.94 68,-214.94 71.5,-204.94 64.5,-204.94"/>
</a>
</g>
</g>
</g>
</svg>
