<?xml version="1.0" encoding="UTF-8" standalone="no"?>
<!DOCTYPE svg PUBLIC "-//W3C//DTD SVG 1.1//EN"
 "http://www.w3.org/Graphics/SVG/1.1/DTD/svg11.dtd">
<!-- Generated by graphviz version 2.43.0 (0)
 -->
<!-- Title: UOWReloadOverride Pages: 1 -->
<svg width="204pt" height="168pt"
 viewBox="0.00 0.00 204.00 168.00" xmlns="http://www.w3.org/2000/svg" xmlns:xlink="http://www.w3.org/1999/xlink">
<g id="graph0" class="graph" transform="scale(1 1) rotate(0) translate(4 164)">
<title>UOWReloadOverride</title>
<!-- Node1 -->
<g id="Node000001" class="node">
<title>Node1</title>
<g id="a_Node000001"><a xlink:title=" ">
<polygon fill="#999999" stroke="transparent" points="169.5,-75 26.5,-75 26.5,0 169.5,0 169.5,-75"/>
<text text-anchor="start" x="48" y="-62.5" font-family="Helvetica,sans-Serif" font-size="10.00">UOWReloadOverride</text>
<text text-anchor="start" x="96.5" y="-47.5" font-family="Helvetica,sans-Serif" font-size="10.00"> </text>
<text text-anchor="start" x="31" y="-32.5" font-family="Helvetica,sans-Serif" font-size="10.00">+</text>
<text text-anchor="start" x="44" y="-32.5" font-family="Helvetica,sans-Serif" font-size="10.00">UOWReloadOverride()</text>
<text text-anchor="start" x="31" y="-17.5" font-family="Helvetica,sans-Serif" font-size="10.00">+</text>
<text text-anchor="start" x="44" y="-17.5" font-family="Helvetica,sans-Serif" font-size="10.00">CalculateBaseMagnitude</text>
<text text-anchor="start" x="44" y="-6.5" font-family="Helvetica,sans-Serif" font-size="10.00">_Implementation()</text>
<polygon fill="#666666" stroke="#666666" points="27,-57.5 27,-57.5 170,-57.5 170,-57.5 27,-57.5"/>
<polygon fill="#666666" stroke="#666666" points="27,-42.5 27,-42.5 170,-42.5 170,-42.5 27,-42.5"/>
<polygon fill="none" stroke="#666666" points="26.5,0 26.5,-75 169.5,-75 169.5,0 26.5,0"/>
</a>
</g>
</g>
<!-- Node2 -->
<g id="Node000002" class="node">
<title>Node2</title>
<g id="a_Node000002"><a xlink:title=" ">
<polygon fill="white" stroke="transparent" points="196,-160 0,-160 0,-111 196,-111 196,-160"/>
<text text-anchor="start" x="5" y="-147.5" font-family="Helvetica,sans-Serif" font-size="10.00">UGameplayModMagnitudeCalculation</text>
<text text-anchor="start" x="96" y="-132.5" font-family="Helvetica,sans-Serif" font-size="10.00"> </text>
<text text-anchor="start" x="96" y="-117.5" font-family="Helvetica,sans-Serif" font-size="10.00"> </text>
<polygon fill="#bfbfbf" stroke="#bfbfbf" points="0,-142.5 0,-142.5 196,-142.5 196,-142.5 0,-142.5"/>
<polygon fill="#bfbfbf" stroke="#bfbfbf" points="0,-127.5 0,-127.5 196,-127.5 196,-127.5 0,-127.5"/>
<polygon fill="none" stroke="#bfbfbf" points="0,-111 0,-160 196,-160 196,-111 0,-111"/>
</a>
</g>
</g>
<!-- Node2&#45;&gt;Node1 -->
<g id="edge1_Node000001_Node000002" class="edge">
<title>Node2&#45;&gt;Node1</title>
<g id="a_edge1_Node000001_Node000002"><a xlink:title=" ">
<path fill="none" stroke="#63b8ff" d="M98,-100.68C98,-92.38 98,-83.46 98,-75.04"/>
<polygon fill="none" stroke="#63b8ff" points="94.5,-100.77 98,-110.77 101.5,-100.77 94.5,-100.77"/>
</a>
</g>
</g>
</g>
</svg>
