<?xml version="1.0" encoding="UTF-8" standalone="no"?>
<!DOCTYPE svg PUBLIC "-//W3C//DTD SVG 1.1//EN"
 "http://www.w3.org/Graphics/SVG/1.1/DTD/svg11.dtd">
<!-- Generated by graphviz version 2.43.0 (0)
 -->
<!-- Title: UOWGT_PlayMontageAndWaitForEvent Pages: 1 -->
<svg width="184pt" height="299pt"
 viewBox="0.00 0.00 184.00 299.00" xmlns="http://www.w3.org/2000/svg" xmlns:xlink="http://www.w3.org/1999/xlink">
<g id="graph0" class="graph" transform="scale(1 1) rotate(0) translate(4 295)">
<title>UOWGT_PlayMontageAndWaitForEvent</title>
<!-- Node1 -->
<g id="Node000001" class="node">
<title>Node1</title>
<g id="a_Node000001"><a xlink:title=" ">
<polygon fill="#999999" stroke="transparent" points="176,-206 0,-206 0,0 176,0 176,-206"/>
<text text-anchor="start" x="14" y="-194" font-family="Helvetica,sans-Serif" font-size="10.00">UOWGT_PlayMontageAndWait</text>
<text text-anchor="start" x="66.5" y="-183" font-family="Helvetica,sans-Serif" font-size="10.00">ForEvent</text>
<text text-anchor="start" x="4" y="-168" font-family="Helvetica,sans-Serif" font-size="10.00">+</text>
<text text-anchor="start" x="17" y="-168" font-family="Helvetica,sans-Serif" font-size="10.00">OnCompleted</text>
<text text-anchor="start" x="4" y="-153" font-family="Helvetica,sans-Serif" font-size="10.00">+</text>
<text text-anchor="start" x="17" y="-153" font-family="Helvetica,sans-Serif" font-size="10.00">OnBlendOut</text>
<text text-anchor="start" x="4" y="-138" font-family="Helvetica,sans-Serif" font-size="10.00">+</text>
<text text-anchor="start" x="17" y="-138" font-family="Helvetica,sans-Serif" font-size="10.00">OnInterrupted</text>
<text text-anchor="start" x="4" y="-123" font-family="Helvetica,sans-Serif" font-size="10.00">+</text>
<text text-anchor="start" x="17" y="-123" font-family="Helvetica,sans-Serif" font-size="10.00">OnCancelled</text>
<text text-anchor="start" x="4" y="-108" font-family="Helvetica,sans-Serif" font-size="10.00">+</text>
<text text-anchor="start" x="17" y="-108" font-family="Helvetica,sans-Serif" font-size="10.00">EventReceived</text>
<text text-anchor="start" x="4" y="-93" font-family="Helvetica,sans-Serif" font-size="10.00">+</text>
<text text-anchor="start" x="17" y="-93" font-family="Helvetica,sans-Serif" font-size="10.00">UOWGT_PlayMontageAndWait</text>
<text text-anchor="start" x="17" y="-82" font-family="Helvetica,sans-Serif" font-size="10.00">ForEvent()</text>
<text text-anchor="start" x="4" y="-67" font-family="Helvetica,sans-Serif" font-size="10.00">+</text>
<text text-anchor="start" x="17" y="-67" font-family="Helvetica,sans-Serif" font-size="10.00">Activate()</text>
<text text-anchor="start" x="4" y="-52" font-family="Helvetica,sans-Serif" font-size="10.00">+</text>
<text text-anchor="start" x="17" y="-52" font-family="Helvetica,sans-Serif" font-size="10.00">ExternalCancel()</text>
<text text-anchor="start" x="4" y="-37" font-family="Helvetica,sans-Serif" font-size="10.00">+</text>
<text text-anchor="start" x="17" y="-37" font-family="Helvetica,sans-Serif" font-size="10.00">GetDebugString()</text>
<text text-anchor="start" x="4" y="-22" font-family="Helvetica,sans-Serif" font-size="10.00">+</text>
<text text-anchor="start" x="17" y="-22" font-family="Helvetica,sans-Serif" font-size="10.00">OnDestroy()</text>
<text text-anchor="start" x="4" y="-7" font-family="Helvetica,sans-Serif" font-size="10.00">+</text>
<text text-anchor="start" x="17" y="-7" font-family="Helvetica,sans-Serif" font-size="10.00">PlayMontageAndWaitForEvent()</text>
<polygon fill="#666666" stroke="#666666" points="0,-178 0,-178 176,-178 176,-178 0,-178"/>
<polygon fill="#666666" stroke="#666666" points="0,-103 0,-103 15,-103 15,-103 0,-103"/>
<polygon fill="#666666" stroke="#666666" points="15,-103 15,-103 176,-103 176,-103 15,-103"/>
<polygon fill="none" stroke="#666666" points="0,0 0,-206 176,-206 176,0 0,0"/>
</a>
</g>
</g>
<!-- Node2 -->
<g id="Node000002" class="node">
<title>Node2</title>
<g id="a_Node000002"><a xlink:title=" ">
<polygon fill="white" stroke="transparent" points="123.5,-291 52.5,-291 52.5,-242 123.5,-242 123.5,-291"/>
<text text-anchor="start" x="58" y="-278.5" font-family="Helvetica,sans-Serif" font-size="10.00">UAbilityTask</text>
<text text-anchor="start" x="86.5" y="-263.5" font-family="Helvetica,sans-Serif" font-size="10.00"> </text>
<text text-anchor="start" x="86.5" y="-248.5" font-family="Helvetica,sans-Serif" font-size="10.00"> </text>
<polygon fill="#bfbfbf" stroke="#bfbfbf" points="53,-273.5 53,-273.5 124,-273.5 124,-273.5 53,-273.5"/>
<polygon fill="#bfbfbf" stroke="#bfbfbf" points="53,-258.5 53,-258.5 124,-258.5 124,-258.5 53,-258.5"/>
<polygon fill="none" stroke="#bfbfbf" points="52.5,-242 52.5,-291 123.5,-291 123.5,-242 52.5,-242"/>
</a>
</g>
</g>
<!-- Node2&#45;&gt;Node1 -->
<g id="edge1_Node000001_Node000002" class="edge">
<title>Node2&#45;&gt;Node1</title>
<g id="a_edge1_Node000001_Node000002"><a xlink:title=" ">
<path fill="none" stroke="#63b8ff" d="M88,-231.65C88,-223.85 88,-215.17 88,-206.1"/>
<polygon fill="none" stroke="#63b8ff" points="84.5,-231.67 88,-241.67 91.5,-231.67 84.5,-231.67"/>
</a>
</g>
</g>
</g>
</svg>
