<?xml version="1.0" encoding="UTF-8" standalone="no"?>
<!DOCTYPE svg PUBLIC "-//W3C//DTD SVG 1.1//EN"
 "http://www.w3.org/Graphics/SVG/1.1/DTD/svg11.dtd">
<!-- Generated by graphviz version 2.43.0 (0)
 -->
<!-- Title: UOWGA_Reload Pages: 1 -->
<svg width="144pt" height="372pt"
 viewBox="0.00 0.00 144.00 372.00" xmlns="http://www.w3.org/2000/svg" xmlns:xlink="http://www.w3.org/1999/xlink">
<g id="graph0" class="graph" transform="scale(1 1) rotate(0) translate(4 368)">
<title>UOWGA_Reload</title>
<!-- Node1 -->
<g id="Node000001" class="node">
<title>Node1</title>
<g id="a_Node000001"><a xlink:title=" ">
<polygon fill="#999999" stroke="transparent" points="130,-109 6,-109 6,0 130,0 130,-109"/>
<text text-anchor="start" x="28.5" y="-96.5" font-family="Helvetica,sans-Serif" font-size="10.00">UOWGA_Reload</text>
<text text-anchor="start" x="66" y="-81.5" font-family="Helvetica,sans-Serif" font-size="10.00"> </text>
<text text-anchor="start" x="10" y="-66.5" font-family="Helvetica,sans-Serif" font-size="10.00">+</text>
<text text-anchor="start" x="23" y="-66.5" font-family="Helvetica,sans-Serif" font-size="10.00">SetCurrentMontage()</text>
<text text-anchor="start" x="10" y="-51.5" font-family="Helvetica,sans-Serif" font-size="10.00">+</text>
<text text-anchor="start" x="23" y="-51.5" font-family="Helvetica,sans-Serif" font-size="10.00">CanActivateAbility()</text>
<text text-anchor="start" x="10" y="-36.5" font-family="Helvetica,sans-Serif" font-size="10.00">+</text>
<text text-anchor="start" x="23" y="-36.5" font-family="Helvetica,sans-Serif" font-size="10.00">ActivateAbility()</text>
<text text-anchor="start" x="10" y="-21.5" font-family="Helvetica,sans-Serif" font-size="10.00">+</text>
<text text-anchor="start" x="23" y="-21.5" font-family="Helvetica,sans-Serif" font-size="10.00">EndAbility()</text>
<text text-anchor="start" x="10" y="-6.5" font-family="Helvetica,sans-Serif" font-size="10.00">+</text>
<text text-anchor="start" x="23" y="-6.5" font-family="Helvetica,sans-Serif" font-size="10.00">Reload()</text>
<polygon fill="#666666" stroke="#666666" points="6,-91.5 6,-91.5 130,-91.5 130,-91.5 6,-91.5"/>
<polygon fill="#666666" stroke="#666666" points="6,-76.5 6,-76.5 130,-76.5 130,-76.5 6,-76.5"/>
<polygon fill="none" stroke="#666666" points="6,0 6,-109 130,-109 130,0 6,0"/>
</a>
</g>
</g>
<!-- Node2 -->
<g id="Node000002" class="node">
<title>Node2</title>
<g id="a_Node000002"><a xlink:href="classUOWGA__Passive.html" target="_top" xlink:title=" ">
<polygon fill="white" stroke="transparent" points="114,-194 22,-194 22,-145 114,-145 114,-194"/>
<text text-anchor="start" x="27" y="-181.5" font-family="Helvetica,sans-Serif" font-size="10.00">UOWGA_Passive</text>
<text text-anchor="start" x="66" y="-166.5" font-family="Helvetica,sans-Serif" font-size="10.00"> </text>
<text text-anchor="start" x="66" y="-151.5" font-family="Helvetica,sans-Serif" font-size="10.00"> </text>
<polygon fill="#bfbfbf" stroke="#bfbfbf" points="22,-176.5 22,-176.5 114,-176.5 114,-176.5 22,-176.5"/>
<polygon fill="#bfbfbf" stroke="#bfbfbf" points="22,-161.5 22,-161.5 114,-161.5 114,-161.5 22,-161.5"/>
<polygon fill="none" stroke="#bfbfbf" points="22,-145 22,-194 114,-194 114,-145 22,-145"/>
</a>
</g>
</g>
<!-- Node2&#45;&gt;Node1 -->
<g id="edge1_Node000001_Node000002" class="edge">
<title>Node2&#45;&gt;Node1</title>
<g id="a_edge1_Node000001_Node000002"><a xlink:title=" ">
<path fill="none" stroke="#63b8ff" d="M68,-134.79C68,-126.79 68,-118.06 68,-109.41"/>
<polygon fill="none" stroke="#63b8ff" points="64.5,-134.81 68,-144.81 71.5,-134.81 64.5,-134.81"/>
</a>
</g>
</g>
<!-- Node3 -->
<g id="Node000003" class="node">
<title>Node3</title>
<g id="a_Node000003"><a xlink:href="classUOWGameplayAbility.html" target="_top" xlink:title=" ">
<polygon fill="white" stroke="transparent" points="136,-279 0,-279 0,-230 136,-230 136,-279"/>
<text text-anchor="start" x="14.5" y="-266.5" font-family="Helvetica,sans-Serif" font-size="10.00">UOWGameplayAbility</text>
<text text-anchor="start" x="66" y="-251.5" font-family="Helvetica,sans-Serif" font-size="10.00"> </text>
<text text-anchor="start" x="4" y="-236.5" font-family="Helvetica,sans-Serif" font-size="10.00">+</text>
<text text-anchor="start" x="17" y="-236.5" font-family="Helvetica,sans-Serif" font-size="10.00">UOWGameplayAbility()</text>
<polygon fill="#bfbfbf" stroke="#bfbfbf" points="0,-261.5 0,-261.5 136,-261.5 136,-261.5 0,-261.5"/>
<polygon fill="#bfbfbf" stroke="#bfbfbf" points="0,-246.5 0,-246.5 136,-246.5 136,-246.5 0,-246.5"/>
<polygon fill="none" stroke="#bfbfbf" points="0,-230 0,-279 136,-279 136,-230 0,-230"/>
</a>
</g>
</g>
<!-- Node3&#45;&gt;Node2 -->
<g id="edge2_Node000002_Node000003" class="edge">
<title>Node3&#45;&gt;Node2</title>
<g id="a_edge2_Node000002_Node000003"><a xlink:title=" ">
<path fill="none" stroke="#63b8ff" d="M68,-219.77C68,-211.17 68,-202.1 68,-194.12"/>
<polygon fill="none" stroke="#63b8ff" points="64.5,-219.94 68,-229.94 71.5,-219.94 64.5,-219.94"/>
</a>
</g>
</g>
<!-- Node4 -->
<g id="Node000004" class="node">
<title>Node4</title>
<g id="a_Node000004"><a xlink:title=" ">
<polygon fill="white" stroke="transparent" points="118,-364 18,-364 18,-315 118,-315 118,-364"/>
<text text-anchor="start" x="23" y="-351.5" font-family="Helvetica,sans-Serif" font-size="10.00">UGameplayAbility</text>
<text text-anchor="start" x="66" y="-336.5" font-family="Helvetica,sans-Serif" font-size="10.00"> </text>
<text text-anchor="start" x="66" y="-321.5" font-family="Helvetica,sans-Serif" font-size="10.00"> </text>
<polygon fill="#bfbfbf" stroke="#bfbfbf" points="18,-346.5 18,-346.5 118,-346.5 118,-346.5 18,-346.5"/>
<polygon fill="#bfbfbf" stroke="#bfbfbf" points="18,-331.5 18,-331.5 118,-331.5 118,-331.5 18,-331.5"/>
<polygon fill="none" stroke="#bfbfbf" points="18,-315 18,-364 118,-364 118,-315 18,-315"/>
</a>
</g>
</g>
<!-- Node4&#45;&gt;Node3 -->
<g id="edge3_Node000003_Node000004" class="edge">
<title>Node4&#45;&gt;Node3</title>
<g id="a_edge3_Node000003_Node000004"><a xlink:title=" ">
<path fill="none" stroke="#63b8ff" d="M68,-304.77C68,-296.17 68,-287.1 68,-279.12"/>
<polygon fill="none" stroke="#63b8ff" points="64.5,-304.94 68,-314.94 71.5,-304.94 64.5,-304.94"/>
</a>
</g>
</g>
</g>
</svg>
