<?xml version="1.0" encoding="UTF-8" standalone="no"?>
<!DOCTYPE svg PUBLIC "-//W3C//DTD SVG 1.1//EN"
 "http://www.w3.org/Graphics/SVG/1.1/DTD/svg11.dtd">
<!-- Generated by graphviz version 2.43.0 (0)
 -->
<!-- Title: UOWGE_Cost Pages: 1 -->
<svg width="121pt" height="227pt"
 viewBox="0.00 0.00 121.00 227.00" xmlns="http://www.w3.org/2000/svg" xmlns:xlink="http://www.w3.org/1999/xlink">
<g id="graph0" class="graph" transform="scale(1 1) rotate(0) translate(4 223)">
<title>UOWGE_Cost</title>
<!-- Node1 -->
<g id="Node000001" class="node">
<title>Node1</title>
<g id="a_Node000001"><a xlink:title=" ">
<polygon fill="#999999" stroke="transparent" points="103.5,-49 9.5,-49 9.5,0 103.5,0 103.5,-49"/>
<text text-anchor="start" x="23.5" y="-36.5" font-family="Helvetica,sans-Serif" font-size="10.00">UOWGE_Cost</text>
<text text-anchor="start" x="54.5" y="-21.5" font-family="Helvetica,sans-Serif" font-size="10.00"> </text>
<text text-anchor="start" x="13.5" y="-6.5" font-family="Helvetica,sans-Serif" font-size="10.00">+</text>
<text text-anchor="start" x="26.5" y="-6.5" font-family="Helvetica,sans-Serif" font-size="10.00">UOWGE_Cost()</text>
<polygon fill="#666666" stroke="#666666" points="9.5,-31.5 9.5,-31.5 103.5,-31.5 103.5,-31.5 9.5,-31.5"/>
<polygon fill="#666666" stroke="#666666" points="9.5,-16.5 9.5,-16.5 103.5,-16.5 103.5,-16.5 9.5,-16.5"/>
<polygon fill="none" stroke="#666666" points="9.5,0 9.5,-49 103.5,-49 103.5,0 9.5,0"/>
</a>
</g>
</g>
<!-- Node2 -->
<g id="Node000002" class="node">
<title>Node2</title>
<g id="a_Node000002"><a xlink:href="classUOWGameplayEffect.html" target="_top" xlink:title=" ">
<polygon fill="white" stroke="transparent" points="113,-134 0,-134 0,-85 113,-85 113,-134"/>
<text text-anchor="start" x="5.5" y="-121.5" font-family="Helvetica,sans-Serif" font-size="10.00">UOWGameplayEffect</text>
<text text-anchor="start" x="55" y="-106.5" font-family="Helvetica,sans-Serif" font-size="10.00"> </text>
<text text-anchor="start" x="55" y="-91.5" font-family="Helvetica,sans-Serif" font-size="10.00"> </text>
<polygon fill="#bfbfbf" stroke="#bfbfbf" points="0.5,-116.5 0.5,-116.5 113.5,-116.5 113.5,-116.5 0.5,-116.5"/>
<polygon fill="#bfbfbf" stroke="#bfbfbf" points="0.5,-101.5 0.5,-101.5 113.5,-101.5 113.5,-101.5 0.5,-101.5"/>
<polygon fill="none" stroke="#bfbfbf" points="0,-85 0,-134 113,-134 113,-85 0,-85"/>
</a>
</g>
</g>
<!-- Node2&#45;&gt;Node1 -->
<g id="edge1_Node000001_Node000002" class="edge">
<title>Node2&#45;&gt;Node1</title>
<g id="a_edge1_Node000001_Node000002"><a xlink:title=" ">
<path fill="none" stroke="#63b8ff" d="M56.5,-74.77C56.5,-66.17 56.5,-57.1 56.5,-49.12"/>
<polygon fill="none" stroke="#63b8ff" points="53,-74.94 56.5,-84.94 60,-74.94 53,-74.94"/>
</a>
</g>
</g>
<!-- Node3 -->
<g id="Node000003" class="node">
<title>Node3</title>
<g id="a_Node000003"><a xlink:title=" ">
<polygon fill="white" stroke="transparent" points="104.5,-219 8.5,-219 8.5,-170 104.5,-170 104.5,-219"/>
<text text-anchor="start" x="13.5" y="-206.5" font-family="Helvetica,sans-Serif" font-size="10.00">UGameplayEffect</text>
<text text-anchor="start" x="54.5" y="-191.5" font-family="Helvetica,sans-Serif" font-size="10.00"> </text>
<text text-anchor="start" x="54.5" y="-176.5" font-family="Helvetica,sans-Serif" font-size="10.00"> </text>
<polygon fill="#bfbfbf" stroke="#bfbfbf" points="8.5,-201.5 8.5,-201.5 104.5,-201.5 104.5,-201.5 8.5,-201.5"/>
<polygon fill="#bfbfbf" stroke="#bfbfbf" points="8.5,-186.5 8.5,-186.5 104.5,-186.5 104.5,-186.5 8.5,-186.5"/>
<polygon fill="none" stroke="#bfbfbf" points="8.5,-170 8.5,-219 104.5,-219 104.5,-170 8.5,-170"/>
</a>
</g>
</g>
<!-- Node3&#45;&gt;Node2 -->
<g id="edge2_Node000002_Node000003" class="edge">
<title>Node3&#45;&gt;Node2</title>
<g id="a_edge2_Node000002_Node000003"><a xlink:title=" ">
<path fill="none" stroke="#63b8ff" d="M56.5,-159.77C56.5,-151.17 56.5,-142.1 56.5,-134.12"/>
<polygon fill="none" stroke="#63b8ff" points="53,-159.94 56.5,-169.94 60,-159.94 53,-159.94"/>
</a>
</g>
</g>
</g>
</svg>
