<?xml version="1.0" encoding="UTF-8" standalone="no"?>
<!DOCTYPE svg PUBLIC "-//W3C//DTD SVG 1.1//EN"
 "http://www.w3.org/Graphics/SVG/1.1/DTD/svg11.dtd">
<!-- Generated by graphviz version 2.43.0 (0)
 -->
<!-- Title: UOWGA_FastZoom Pages: 1 -->
<svg width="144pt" height="402pt"
 viewBox="0.00 0.00 144.00 402.00" xmlns="http://www.w3.org/2000/svg" xmlns:xlink="http://www.w3.org/1999/xlink">
<g id="graph0" class="graph" transform="scale(1 1) rotate(0) translate(4 398)">
<title>UOWGA_FastZoom</title>
<!-- Node1 -->
<g id="Node000001" class="node">
<title>Node1</title>
<g id="a_Node000001"><a xlink:title=" ">
<polygon fill="#999999" stroke="transparent" points="119.5,-64 16.5,-64 16.5,0 119.5,0 119.5,-64"/>
<text text-anchor="start" x="22" y="-52" font-family="Helvetica,sans-Serif" font-size="10.00">UOWGA_FastZoom</text>
<text text-anchor="start" x="21.5" y="-37" font-family="Helvetica,sans-Serif" font-size="10.00">#</text>
<text text-anchor="start" x="35" y="-37" font-family="Helvetica,sans-Serif" font-size="10.00">ZoomFOV</text>
<text text-anchor="start" x="21.5" y="-22" font-family="Helvetica,sans-Serif" font-size="10.00">+</text>
<text text-anchor="start" x="35" y="-22" font-family="Helvetica,sans-Serif" font-size="10.00">ActivateAbility()</text>
<text text-anchor="start" x="21.5" y="-7" font-family="Helvetica,sans-Serif" font-size="10.00">+</text>
<text text-anchor="start" x="35" y="-7" font-family="Helvetica,sans-Serif" font-size="10.00">EndAbility()</text>
<polygon fill="#666666" stroke="#666666" points="17,-47 17,-47 120,-47 120,-47 17,-47"/>
<polygon fill="#666666" stroke="#666666" points="17,-32 17,-32 33,-32 33,-32 17,-32"/>
<polygon fill="#666666" stroke="#666666" points="33,-32 33,-32 120,-32 120,-32 33,-32"/>
<polygon fill="none" stroke="#666666" points="16.5,0 16.5,-64 119.5,-64 119.5,0 16.5,0"/>
</a>
</g>
</g>
<!-- Node2 -->
<g id="Node000002" class="node">
<title>Node2</title>
<g id="a_Node000002"><a xlink:href="classUOWGA__Active.html" target="_top" xlink:title=" ">
<polygon fill="white" stroke="transparent" points="128,-224 8,-224 8,-100 128,-100 128,-224"/>
<text text-anchor="start" x="30" y="-212" font-family="Helvetica,sans-Serif" font-size="10.00">UOWGA_Active</text>
<text text-anchor="start" x="12" y="-197" font-family="Helvetica,sans-Serif" font-size="10.00">#</text>
<text text-anchor="start" x="25" y="-197" font-family="Helvetica,sans-Serif" font-size="10.00">CooldownDuration</text>
<text text-anchor="start" x="12" y="-182" font-family="Helvetica,sans-Serif" font-size="10.00">#</text>
<text text-anchor="start" x="25" y="-182" font-family="Helvetica,sans-Serif" font-size="10.00">CooldownTags</text>
<text text-anchor="start" x="12" y="-167" font-family="Helvetica,sans-Serif" font-size="10.00">+</text>
<text text-anchor="start" x="25" y="-167" font-family="Helvetica,sans-Serif" font-size="10.00">UOWGA_Active()</text>
<text text-anchor="start" x="12" y="-152" font-family="Helvetica,sans-Serif" font-size="10.00">+</text>
<text text-anchor="start" x="25" y="-152" font-family="Helvetica,sans-Serif" font-size="10.00">SetCooldownData()</text>
<text text-anchor="start" x="12" y="-137" font-family="Helvetica,sans-Serif" font-size="10.00">+</text>
<text text-anchor="start" x="25" y="-137" font-family="Helvetica,sans-Serif" font-size="10.00">ActivateAbility()</text>
<text text-anchor="start" x="12" y="-122" font-family="Helvetica,sans-Serif" font-size="10.00">+</text>
<text text-anchor="start" x="25" y="-122" font-family="Helvetica,sans-Serif" font-size="10.00">ApplyCooldown()</text>
<text text-anchor="start" x="12" y="-107" font-family="Helvetica,sans-Serif" font-size="10.00">+</text>
<text text-anchor="start" x="25" y="-107" font-family="Helvetica,sans-Serif" font-size="10.00">CanActivateAbility()</text>
<polygon fill="#666666" stroke="#666666" points="8,-207 8,-207 128,-207 128,-207 8,-207"/>
<polygon fill="#666666" stroke="#666666" points="8,-177 8,-177 23,-177 23,-177 8,-177"/>
<polygon fill="#666666" stroke="#666666" points="23,-177 23,-177 128,-177 128,-177 23,-177"/>
<polygon fill="none" stroke="#666666" points="8,-100 8,-224 128,-224 128,-100 8,-100"/>
</a>
</g>
</g>
<!-- Node2&#45;&gt;Node1 -->
<g id="edge1_Node000001_Node000002" class="edge">
<title>Node2&#45;&gt;Node1</title>
<g id="a_edge1_Node000001_Node000002"><a xlink:title=" ">
<path fill="none" stroke="#63b8ff" d="M68,-89.86C68,-80.92 68,-72.17 68,-64.31"/>
<polygon fill="none" stroke="#63b8ff" points="64.5,-90 68,-100 71.5,-90 64.5,-90"/>
</a>
</g>
</g>
<!-- Node3 -->
<g id="Node000003" class="node">
<title>Node3</title>
<g id="a_Node000003"><a xlink:href="classUOWGameplayAbility.html" target="_top" xlink:title=" ">
<polygon fill="white" stroke="transparent" points="136,-309 0,-309 0,-260 136,-260 136,-309"/>
<text text-anchor="start" x="14.5" y="-296.5" font-family="Helvetica,sans-Serif" font-size="10.00">UOWGameplayAbility</text>
<text text-anchor="start" x="66" y="-281.5" font-family="Helvetica,sans-Serif" font-size="10.00"> </text>
<text text-anchor="start" x="4" y="-266.5" font-family="Helvetica,sans-Serif" font-size="10.00">+</text>
<text text-anchor="start" x="17" y="-266.5" font-family="Helvetica,sans-Serif" font-size="10.00">UOWGameplayAbility()</text>
<polygon fill="#bfbfbf" stroke="#bfbfbf" points="0,-291.5 0,-291.5 136,-291.5 136,-291.5 0,-291.5"/>
<polygon fill="#bfbfbf" stroke="#bfbfbf" points="0,-276.5 0,-276.5 136,-276.5 136,-276.5 0,-276.5"/>
<polygon fill="none" stroke="#bfbfbf" points="0,-260 0,-309 136,-309 136,-260 0,-260"/>
</a>
</g>
</g>
<!-- Node3&#45;&gt;Node2 -->
<g id="edge2_Node000002_Node000003" class="edge">
<title>Node3&#45;&gt;Node2</title>
<g id="a_edge2_Node000002_Node000003"><a xlink:title=" ">
<path fill="none" stroke="#63b8ff" d="M68,-249.94C68,-241.91 68,-233.08 68,-224.23"/>
<polygon fill="none" stroke="#63b8ff" points="64.5,-249.98 68,-259.98 71.5,-249.98 64.5,-249.98"/>
</a>
</g>
</g>
<!-- Node4 -->
<g id="Node000004" class="node">
<title>Node4</title>
<g id="a_Node000004"><a xlink:title=" ">
<polygon fill="white" stroke="transparent" points="118,-394 18,-394 18,-345 118,-345 118,-394"/>
<text text-anchor="start" x="23" y="-381.5" font-family="Helvetica,sans-Serif" font-size="10.00">UGameplayAbility</text>
<text text-anchor="start" x="66" y="-366.5" font-family="Helvetica,sans-Serif" font-size="10.00"> </text>
<text text-anchor="start" x="66" y="-351.5" font-family="Helvetica,sans-Serif" font-size="10.00"> </text>
<polygon fill="#bfbfbf" stroke="#bfbfbf" points="18,-376.5 18,-376.5 118,-376.5 118,-376.5 18,-376.5"/>
<polygon fill="#bfbfbf" stroke="#bfbfbf" points="18,-361.5 18,-361.5 118,-361.5 118,-361.5 18,-361.5"/>
<polygon fill="none" stroke="#bfbfbf" points="18,-345 18,-394 118,-394 118,-345 18,-345"/>
</a>
</g>
</g>
<!-- Node4&#45;&gt;Node3 -->
<g id="edge3_Node000003_Node000004" class="edge">
<title>Node4&#45;&gt;Node3</title>
<g id="a_edge3_Node000003_Node000004"><a xlink:title=" ">
<path fill="none" stroke="#63b8ff" d="M68,-334.77C68,-326.17 68,-317.1 68,-309.12"/>
<polygon fill="none" stroke="#63b8ff" points="64.5,-334.94 68,-344.94 71.5,-334.94 64.5,-334.94"/>
</a>
</g>
</g>
</g>
</svg>
