<?xml version="1.0" encoding="UTF-8" standalone="no"?>
<!DOCTYPE svg PUBLIC "-//W3C//DTD SVG 1.1//EN"
 "http://www.w3.org/Graphics/SVG/1.1/DTD/svg11.dtd">
<!-- Generated by graphviz version 2.43.0 (0)
 -->
<!-- Title: UOWGameplayEffect Pages: 1 -->
<svg width="300pt" height="227pt"
 viewBox="0.00 0.00 300.00 227.00" xmlns="http://www.w3.org/2000/svg" xmlns:xlink="http://www.w3.org/1999/xlink">
<g id="graph0" class="graph" transform="scale(1 1) rotate(0) translate(4 223)">
<title>UOWGameplayEffect</title>
<!-- Node1 -->
<g id="Node000001" class="node">
<title>Node1</title>
<g id="a_Node000001"><a xlink:title=" ">
<polygon fill="#999999" stroke="transparent" points="223.5,-134 110.5,-134 110.5,-85 223.5,-85 223.5,-134"/>
<text text-anchor="start" x="116" y="-121.5" font-family="Helvetica,sans-Serif" font-size="10.00">UOWGameplayEffect</text>
<text text-anchor="start" x="165.5" y="-106.5" font-family="Helvetica,sans-Serif" font-size="10.00"> </text>
<text text-anchor="start" x="165.5" y="-91.5" font-family="Helvetica,sans-Serif" font-size="10.00"> </text>
<polygon fill="#666666" stroke="#666666" points="111,-116.5 111,-116.5 224,-116.5 224,-116.5 111,-116.5"/>
<polygon fill="#666666" stroke="#666666" points="111,-101.5 111,-101.5 224,-101.5 224,-101.5 111,-101.5"/>
<polygon fill="none" stroke="#666666" points="110.5,-85 110.5,-134 223.5,-134 223.5,-85 110.5,-85"/>
</a>
</g>
</g>
<!-- Node3 -->
<g id="Node000003" class="node">
<title>Node3</title>
<g id="a_Node000003"><a xlink:href="classUOWCooldownGameplayEffect.html" target="_top" xlink:title=" ">
<polygon fill="white" stroke="transparent" points="180,-49 0,-49 0,0 180,0 180,-49"/>
<text text-anchor="start" x="14.5" y="-36.5" font-family="Helvetica,sans-Serif" font-size="10.00">UOWCooldownGameplayEffect</text>
<text text-anchor="start" x="88" y="-21.5" font-family="Helvetica,sans-Serif" font-size="10.00"> </text>
<text text-anchor="start" x="4" y="-6.5" font-family="Helvetica,sans-Serif" font-size="10.00">+</text>
<text text-anchor="start" x="17" y="-6.5" font-family="Helvetica,sans-Serif" font-size="10.00">UOWCooldownGameplayEffect()</text>
<polygon fill="#bfbfbf" stroke="#bfbfbf" points="0,-31.5 0,-31.5 180,-31.5 180,-31.5 0,-31.5"/>
<polygon fill="#bfbfbf" stroke="#bfbfbf" points="0,-16.5 0,-16.5 180,-16.5 180,-16.5 0,-16.5"/>
<polygon fill="none" stroke="#bfbfbf" points="0,0 0,-49 180,-49 180,0 0,0"/>
</a>
</g>
</g>
<!-- Node1&#45;&gt;Node3 -->
<g id="edge2_Node000001_Node000003" class="edge">
<title>Node1&#45;&gt;Node3</title>
<g id="a_edge2_Node000001_Node000003"><a xlink:title=" ">
<path fill="none" stroke="#63b8ff" d="M138.33,-77.59C129.59,-68.17 120.13,-57.98 111.91,-49.12"/>
<polygon fill="none" stroke="#63b8ff" points="135.77,-79.99 145.14,-84.94 140.91,-75.23 135.77,-79.99"/>
</a>
</g>
</g>
<!-- Node4 -->
<g id="Node000004" class="node">
<title>Node4</title>
<g id="a_Node000004"><a xlink:href="classUOWGE__Cost.html" target="_top" xlink:title=" ">
<polygon fill="white" stroke="transparent" points="292,-49 198,-49 198,0 292,0 292,-49"/>
<text text-anchor="start" x="212" y="-36.5" font-family="Helvetica,sans-Serif" font-size="10.00">UOWGE_Cost</text>
<text text-anchor="start" x="243" y="-21.5" font-family="Helvetica,sans-Serif" font-size="10.00"> </text>
<text text-anchor="start" x="202" y="-6.5" font-family="Helvetica,sans-Serif" font-size="10.00">+</text>
<text text-anchor="start" x="215" y="-6.5" font-family="Helvetica,sans-Serif" font-size="10.00">UOWGE_Cost()</text>
<polygon fill="#666666" stroke="#666666" points="198,-31.5 198,-31.5 292,-31.5 292,-31.5 198,-31.5"/>
<polygon fill="#666666" stroke="#666666" points="198,-16.5 198,-16.5 292,-16.5 292,-16.5 198,-16.5"/>
<polygon fill="none" stroke="#666666" points="198,0 198,-49 292,-49 292,0 198,0"/>
</a>
</g>
</g>
<!-- Node1&#45;&gt;Node4 -->
<g id="edge3_Node000001_Node000004" class="edge">
<title>Node1&#45;&gt;Node4</title>
<g id="a_edge3_Node000001_Node000004"><a xlink:title=" ">
<path fill="none" stroke="#63b8ff" d="M196.05,-77.59C204.9,-68.17 214.48,-57.98 222.8,-49.12"/>
<polygon fill="none" stroke="#63b8ff" points="193.44,-75.25 189.14,-84.94 198.54,-80.05 193.44,-75.25"/>
</a>
</g>
</g>
<!-- Node2 -->
<g id="Node000002" class="node">
<title>Node2</title>
<g id="a_Node000002"><a xlink:title=" ">
<polygon fill="white" stroke="transparent" points="215,-219 119,-219 119,-170 215,-170 215,-219"/>
<text text-anchor="start" x="124" y="-206.5" font-family="Helvetica,sans-Serif" font-size="10.00">UGameplayEffect</text>
<text text-anchor="start" x="165" y="-191.5" font-family="Helvetica,sans-Serif" font-size="10.00"> </text>
<text text-anchor="start" x="165" y="-176.5" font-family="Helvetica,sans-Serif" font-size="10.00"> </text>
<polygon fill="#bfbfbf" stroke="#bfbfbf" points="119,-201.5 119,-201.5 215,-201.5 215,-201.5 119,-201.5"/>
<polygon fill="#bfbfbf" stroke="#bfbfbf" points="119,-186.5 119,-186.5 215,-186.5 215,-186.5 119,-186.5"/>
<polygon fill="none" stroke="#bfbfbf" points="119,-170 119,-219 215,-219 215,-170 119,-170"/>
</a>
</g>
</g>
<!-- Node2&#45;&gt;Node1 -->
<g id="edge1_Node000001_Node000002" class="edge">
<title>Node2&#45;&gt;Node1</title>
<g id="a_edge1_Node000001_Node000002"><a xlink:title=" ">
<path fill="none" stroke="#63b8ff" d="M167,-159.77C167,-151.17 167,-142.1 167,-134.12"/>
<polygon fill="none" stroke="#63b8ff" points="163.5,-159.94 167,-169.94 170.5,-159.94 163.5,-159.94"/>
</a>
</g>
</g>
</g>
</svg>
