<?xml version="1.0" encoding="UTF-8" standalone="no"?>
<!DOCTYPE svg PUBLIC "-//W3C//DTD SVG 1.1//EN"
 "http://www.w3.org/Graphics/SVG/1.1/DTD/svg11.dtd">
<!-- Generated by graphviz version 2.43.0 (0)
 -->
<!-- Title: UOWGA_Passive Pages: 1 -->
<svg width="144pt" height="227pt"
 viewBox="0.00 0.00 144.00 227.00" xmlns="http://www.w3.org/2000/svg" xmlns:xlink="http://www.w3.org/1999/xlink">
<g id="graph0" class="graph" transform="scale(1 1) rotate(0) translate(4 223)">
<title>UOWGA_Passive</title>
<!-- Node1 -->
<g id="Node000001" class="node">
<title>Node1</title>
<g id="a_Node000001"><a xlink:title=" ">
<polygon fill="#999999" stroke="transparent" points="114,-49 22,-49 22,0 114,0 114,-49"/>
<text text-anchor="start" x="27" y="-36.5" font-family="Helvetica,sans-Serif" font-size="10.00">UOWGA_Passive</text>
<text text-anchor="start" x="66" y="-21.5" font-family="Helvetica,sans-Serif" font-size="10.00"> </text>
<text text-anchor="start" x="66" y="-6.5" font-family="Helvetica,sans-Serif" font-size="10.00"> </text>
<polygon fill="#666666" stroke="#666666" points="22,-31.5 22,-31.5 114,-31.5 114,-31.5 22,-31.5"/>
<polygon fill="#666666" stroke="#666666" points="22,-16.5 22,-16.5 114,-16.5 114,-16.5 22,-16.5"/>
<polygon fill="none" stroke="#666666" points="22,0 22,-49 114,-49 114,0 22,0"/>
</a>
</g>
</g>
<!-- Node2 -->
<g id="Node000002" class="node">
<title>Node2</title>
<g id="a_Node000002"><a xlink:href="classUOWGameplayAbility.html" target="_top" xlink:title=" ">
<polygon fill="white" stroke="transparent" points="136,-134 0,-134 0,-85 136,-85 136,-134"/>
<text text-anchor="start" x="14.5" y="-121.5" font-family="Helvetica,sans-Serif" font-size="10.00">UOWGameplayAbility</text>
<text text-anchor="start" x="66" y="-106.5" font-family="Helvetica,sans-Serif" font-size="10.00"> </text>
<text text-anchor="start" x="4" y="-91.5" font-family="Helvetica,sans-Serif" font-size="10.00">+</text>
<text text-anchor="start" x="17" y="-91.5" font-family="Helvetica,sans-Serif" font-size="10.00">UOWGameplayAbility()</text>
<polygon fill="#bfbfbf" stroke="#bfbfbf" points="0,-116.5 0,-116.5 136,-116.5 136,-116.5 0,-116.5"/>
<polygon fill="#bfbfbf" stroke="#bfbfbf" points="0,-101.5 0,-101.5 136,-101.5 136,-101.5 0,-101.5"/>
<polygon fill="none" stroke="#bfbfbf" points="0,-85 0,-134 136,-134 136,-85 0,-85"/>
</a>
</g>
</g>
<!-- Node2&#45;&gt;Node1 -->
<g id="edge1_Node000001_Node000002" class="edge">
<title>Node2&#45;&gt;Node1</title>
<g id="a_edge1_Node000001_Node000002"><a xlink:title=" ">
<path fill="none" stroke="#63b8ff" d="M68,-74.77C68,-66.17 68,-57.1 68,-49.12"/>
<polygon fill="none" stroke="#63b8ff" points="64.5,-74.94 68,-84.94 71.5,-74.94 64.5,-74.94"/>
</a>
</g>
</g>
<!-- Node3 -->
<g id="Node000003" class="node">
<title>Node3</title>
<g id="a_Node000003"><a xlink:title=" ">
<polygon fill="white" stroke="transparent" points="118,-219 18,-219 18,-170 118,-170 118,-219"/>
<text text-anchor="start" x="23" y="-206.5" font-family="Helvetica,sans-Serif" font-size="10.00">UGameplayAbility</text>
<text text-anchor="start" x="66" y="-191.5" font-family="Helvetica,sans-Serif" font-size="10.00"> </text>
<text text-anchor="start" x="66" y="-176.5" font-family="Helvetica,sans-Serif" font-size="10.00"> </text>
<polygon fill="#bfbfbf" stroke="#bfbfbf" points="18,-201.5 18,-201.5 118,-201.5 118,-201.5 18,-201.5"/>
<polygon fill="#bfbfbf" stroke="#bfbfbf" points="18,-186.5 18,-186.5 118,-186.5 118,-186.5 18,-186.5"/>
<polygon fill="none" stroke="#bfbfbf" points="18,-170 18,-219 118,-219 118,-170 18,-170"/>
</a>
</g>
</g>
<!-- Node3&#45;&gt;Node2 -->
<g id="edge2_Node000002_Node000003" class="edge">
<title>Node3&#45;&gt;Node2</title>
<g id="a_edge2_Node000002_Node000003"><a xlink:title=" ">
<path fill="none" stroke="#63b8ff" d="M68,-159.77C68,-151.17 68,-142.1 68,-134.12"/>
<polygon fill="none" stroke="#63b8ff" points="64.5,-159.94 68,-169.94 71.5,-159.94 64.5,-159.94"/>
</a>
</g>
</g>
</g>
</svg>
