<?xml version="1.0" encoding="UTF-8" standalone="no"?>
<!DOCTYPE svg PUBLIC "-//W3C//DTD SVG 1.1//EN"
 "http://www.w3.org/Graphics/SVG/1.1/DTD/svg11.dtd">
<!-- Generated by graphviz version 2.43.0 (0)
 -->
<!-- Title: AOWPlayerState Pages: 1 -->
<svg width="226pt" height="202pt"
 viewBox="0.00 0.00 225.50 202.00" xmlns="http://www.w3.org/2000/svg" xmlns:xlink="http://www.w3.org/1999/xlink">
<g id="graph0" class="graph" transform="scale(1 1) rotate(0) translate(4 198)">
<title>AOWPlayerState</title>
<!-- Node1 -->
<g id="Node000001" class="node">
<title>Node1</title>
<g id="a_Node000001"><a xlink:title=" ">
<polygon fill="#999999" stroke="transparent" points="189.5,-109 2.5,-109 2.5,0 189.5,0 189.5,-109"/>
<text text-anchor="start" x="56" y="-96.5" font-family="Helvetica,sans-Serif" font-size="10.00">AOWPlayerState</text>
<text text-anchor="start" x="7" y="-81.5" font-family="Helvetica,sans-Serif" font-size="10.00">#</text>
<text text-anchor="start" x="20" y="-81.5" font-family="Helvetica,sans-Serif" font-size="10.00">AbilitySystemComponent</text>
<text text-anchor="start" x="7" y="-66.5" font-family="Helvetica,sans-Serif" font-size="10.00">#</text>
<text text-anchor="start" x="20" y="-66.5" font-family="Helvetica,sans-Serif" font-size="10.00">AbilitySet</text>
<text text-anchor="start" x="7" y="-51.5" font-family="Helvetica,sans-Serif" font-size="10.00">+</text>
<text text-anchor="start" x="20" y="-51.5" font-family="Helvetica,sans-Serif" font-size="10.00">AOWPlayerState()</text>
<text text-anchor="start" x="7" y="-36.5" font-family="Helvetica,sans-Serif" font-size="10.00">+</text>
<text text-anchor="start" x="20" y="-36.5" font-family="Helvetica,sans-Serif" font-size="10.00">GetAbilitySystemComponent()</text>
<text text-anchor="start" x="7" y="-21.5" font-family="Helvetica,sans-Serif" font-size="10.00">+</text>
<text text-anchor="start" x="20" y="-21.5" font-family="Helvetica,sans-Serif" font-size="10.00">GetOWAbilitySystemComponent()</text>
<text text-anchor="start" x="7" y="-6.5" font-family="Helvetica,sans-Serif" font-size="10.00">+</text>
<text text-anchor="start" x="20" y="-6.5" font-family="Helvetica,sans-Serif" font-size="10.00">BeginPlay()</text>
<polygon fill="#666666" stroke="#666666" points="3,-91.5 3,-91.5 190,-91.5 190,-91.5 3,-91.5"/>
<polygon fill="#666666" stroke="#666666" points="3,-61.5 3,-61.5 18,-61.5 18,-61.5 3,-61.5"/>
<polygon fill="#666666" stroke="#666666" points="18,-61.5 18,-61.5 190,-61.5 190,-61.5 18,-61.5"/>
<polygon fill="none" stroke="#666666" points="2.5,0 2.5,-109 189.5,-109 189.5,0 2.5,0"/>
</a>
</g>
</g>
<!-- Node2 -->
<g id="Node000002" class="node">
<title>Node2</title>
<g id="a_Node000002"><a xlink:title=" ">
<polygon fill="white" stroke="transparent" points="74,-194 0,-194 0,-145 74,-145 74,-194"/>
<text text-anchor="start" x="5" y="-181.5" font-family="Helvetica,sans-Serif" font-size="10.00">APlayerState</text>
<text text-anchor="start" x="35" y="-166.5" font-family="Helvetica,sans-Serif" font-size="10.00"> </text>
<text text-anchor="start" x="35" y="-151.5" font-family="Helvetica,sans-Serif" font-size="10.00"> </text>
<polygon fill="#bfbfbf" stroke="#bfbfbf" points="0,-176.5 0,-176.5 74,-176.5 74,-176.5 0,-176.5"/>
<polygon fill="#bfbfbf" stroke="#bfbfbf" points="0,-161.5 0,-161.5 74,-161.5 74,-161.5 0,-161.5"/>
<polygon fill="none" stroke="#bfbfbf" points="0,-145 0,-194 74,-194 74,-145 0,-145"/>
</a>
</g>
</g>
<!-- Node2&#45;&gt;Node1 -->
<g id="edge1_Node000001_Node000002" class="edge">
<title>Node2&#45;&gt;Node1</title>
<g id="a_edge1_Node000001_Node000002"><a xlink:title=" ">
<path fill="none" stroke="#63b8ff" d="M54.04,-135.86C58.37,-127.58 63.13,-118.45 67.85,-109.41"/>
<polygon fill="none" stroke="#63b8ff" points="50.89,-134.33 49.37,-144.81 57.1,-137.57 50.89,-134.33"/>
</a>
</g>
</g>
<!-- Node3 -->
<g id="Node000003" class="node">
<title>Node3</title>
<g id="a_Node000003"><a xlink:title=" ">
<polygon fill="white" stroke="transparent" points="217.5,-194 92.5,-194 92.5,-145 217.5,-145 217.5,-194"/>
<text text-anchor="start" x="98" y="-181.5" font-family="Helvetica,sans-Serif" font-size="10.00">IAbilitySystemInterface</text>
<text text-anchor="start" x="153.5" y="-166.5" font-family="Helvetica,sans-Serif" font-size="10.00"> </text>
<text text-anchor="start" x="153.5" y="-151.5" font-family="Helvetica,sans-Serif" font-size="10.00"> </text>
<polygon fill="#bfbfbf" stroke="#bfbfbf" points="93,-176.5 93,-176.5 218,-176.5 218,-176.5 93,-176.5"/>
<polygon fill="#bfbfbf" stroke="#bfbfbf" points="93,-161.5 93,-161.5 218,-161.5 218,-161.5 93,-161.5"/>
<polygon fill="none" stroke="#bfbfbf" points="92.5,-145 92.5,-194 217.5,-194 217.5,-145 92.5,-145"/>
</a>
</g>
</g>
<!-- Node3&#45;&gt;Node1 -->
<g id="edge2_Node000001_Node000003" class="edge">
<title>Node3&#45;&gt;Node1</title>
<g id="a_edge2_Node000001_Node000003"><a xlink:title=" ">
<path fill="none" stroke="#63b8ff" d="M137.96,-135.86C133.63,-127.58 128.87,-118.45 124.15,-109.41"/>
<polygon fill="none" stroke="#63b8ff" points="134.9,-137.57 142.63,-144.81 141.11,-134.33 134.9,-137.57"/>
</a>
</g>
</g>
</g>
</svg>
