<?xml version="1.0" encoding="UTF-8" standalone="no"?>
<!DOCTYPE svg PUBLIC "-//W3C//DTD SVG 1.1//EN"
 "http://www.w3.org/Graphics/SVG/1.1/DTD/svg11.dtd">
<!-- Generated by graphviz version 2.43.0 (0)
 -->
<!-- Title: UOWGameplayAbility Pages: 1 -->
<svg width="533pt" height="522pt"
 viewBox="0.00 0.00 532.50 522.00" xmlns="http://www.w3.org/2000/svg" xmlns:xlink="http://www.w3.org/1999/xlink">
<g id="graph0" class="graph" transform="scale(1 1) rotate(0) translate(4 518)">
<title>UOWGameplayAbility</title>
<!-- Node1 -->
<g id="Node000001" class="node">
<title>Node1</title>
<g id="a_Node000001"><a xlink:title=" ">
<polygon fill="#999999" stroke="transparent" points="412.5,-429 276.5,-429 276.5,-380 412.5,-380 412.5,-429"/>
<text text-anchor="start" x="291" y="-416.5" font-family="Helvetica,sans-Serif" font-size="10.00">UOWGameplayAbility</text>
<text text-anchor="start" x="342.5" y="-401.5" font-family="Helvetica,sans-Serif" font-size="10.00"> </text>
<text text-anchor="start" x="280.5" y="-386.5" font-family="Helvetica,sans-Serif" font-size="10.00">+</text>
<text text-anchor="start" x="293.5" y="-386.5" font-family="Helvetica,sans-Serif" font-size="10.00">UOWGameplayAbility()</text>
<polygon fill="#666666" stroke="#666666" points="276.5,-411.5 276.5,-411.5 412.5,-411.5 412.5,-411.5 276.5,-411.5"/>
<polygon fill="#666666" stroke="#666666" points="276.5,-396.5 276.5,-396.5 412.5,-396.5 412.5,-396.5 276.5,-396.5"/>
<polygon fill="none" stroke="#666666" points="276.5,-380 276.5,-429 412.5,-429 412.5,-380 276.5,-380"/>
</a>
</g>
</g>
<!-- Node3 -->
<g id="Node000003" class="node">
<title>Node3</title>
<g id="a_Node000003"><a xlink:href="classUOWGA__Active.html" target="_top" xlink:title=" ">
<polygon fill="white" stroke="transparent" points="276.5,-344 156.5,-344 156.5,-220 276.5,-220 276.5,-344"/>
<text text-anchor="start" x="178.5" y="-332" font-family="Helvetica,sans-Serif" font-size="10.00">UOWGA_Active</text>
<text text-anchor="start" x="160.5" y="-317" font-family="Helvetica,sans-Serif" font-size="10.00">#</text>
<text text-anchor="start" x="173.5" y="-317" font-family="Helvetica,sans-Serif" font-size="10.00">CooldownDuration</text>
<text text-anchor="start" x="160.5" y="-302" font-family="Helvetica,sans-Serif" font-size="10.00">#</text>
<text text-anchor="start" x="173.5" y="-302" font-family="Helvetica,sans-Serif" font-size="10.00">CooldownTags</text>
<text text-anchor="start" x="160.5" y="-287" font-family="Helvetica,sans-Serif" font-size="10.00">+</text>
<text text-anchor="start" x="173.5" y="-287" font-family="Helvetica,sans-Serif" font-size="10.00">UOWGA_Active()</text>
<text text-anchor="start" x="160.5" y="-272" font-family="Helvetica,sans-Serif" font-size="10.00">+</text>
<text text-anchor="start" x="173.5" y="-272" font-family="Helvetica,sans-Serif" font-size="10.00">SetCooldownData()</text>
<text text-anchor="start" x="160.5" y="-257" font-family="Helvetica,sans-Serif" font-size="10.00">+</text>
<text text-anchor="start" x="173.5" y="-257" font-family="Helvetica,sans-Serif" font-size="10.00">ActivateAbility()</text>
<text text-anchor="start" x="160.5" y="-242" font-family="Helvetica,sans-Serif" font-size="10.00">+</text>
<text text-anchor="start" x="173.5" y="-242" font-family="Helvetica,sans-Serif" font-size="10.00">ApplyCooldown()</text>
<text text-anchor="start" x="160.5" y="-227" font-family="Helvetica,sans-Serif" font-size="10.00">+</text>
<text text-anchor="start" x="173.5" y="-227" font-family="Helvetica,sans-Serif" font-size="10.00">CanActivateAbility()</text>
<polygon fill="#666666" stroke="#666666" points="156.5,-327 156.5,-327 276.5,-327 276.5,-327 156.5,-327"/>
<polygon fill="#666666" stroke="#666666" points="156.5,-297 156.5,-297 171.5,-297 171.5,-297 156.5,-297"/>
<polygon fill="#666666" stroke="#666666" points="171.5,-297 171.5,-297 276.5,-297 276.5,-297 171.5,-297"/>
<polygon fill="none" stroke="#666666" points="156.5,-220 156.5,-344 276.5,-344 276.5,-220 156.5,-220"/>
</a>
</g>
</g>
<!-- Node1&#45;&gt;Node3 -->
<g id="edge2_Node000001_Node000003" class="edge">
<title>Node1&#45;&gt;Node3</title>
<g id="a_edge2_Node000001_Node000003"><a xlink:title=" ">
<path fill="none" stroke="#63b8ff" d="M311.98,-372.89C301.22,-362.75 288.87,-351.13 276.7,-339.67"/>
<polygon fill="none" stroke="#63b8ff" points="309.84,-375.67 319.52,-379.98 314.63,-370.58 309.84,-375.67"/>
</a>
</g>
</g>
<!-- Node6 -->
<g id="Node000006" class="node">
<title>Node6</title>
<g id="a_Node000006"><a xlink:href="classUOWGA__Passive.html" target="_top" xlink:title=" ">
<polygon fill="white" stroke="transparent" points="390.5,-306.5 298.5,-306.5 298.5,-257.5 390.5,-257.5 390.5,-306.5"/>
<text text-anchor="start" x="303.5" y="-294" font-family="Helvetica,sans-Serif" font-size="10.00">UOWGA_Passive</text>
<text text-anchor="start" x="342.5" y="-279" font-family="Helvetica,sans-Serif" font-size="10.00"> </text>
<text text-anchor="start" x="342.5" y="-264" font-family="Helvetica,sans-Serif" font-size="10.00"> </text>
<polygon fill="#bfbfbf" stroke="#bfbfbf" points="298.5,-289 298.5,-289 390.5,-289 390.5,-289 298.5,-289"/>
<polygon fill="#bfbfbf" stroke="#bfbfbf" points="298.5,-274 298.5,-274 390.5,-274 390.5,-274 298.5,-274"/>
<polygon fill="none" stroke="#bfbfbf" points="298.5,-257.5 298.5,-306.5 390.5,-306.5 390.5,-257.5 298.5,-257.5"/>
</a>
</g>
</g>
<!-- Node1&#45;&gt;Node6 -->
<g id="edge5_Node000001_Node000006" class="edge">
<title>Node1&#45;&gt;Node6</title>
<g id="a_edge5_Node000001_Node000006"><a xlink:title=" ">
<path fill="none" stroke="#63b8ff" d="M344.5,-369.73C344.5,-349.72 344.5,-324.84 344.5,-306.87"/>
<polygon fill="none" stroke="#63b8ff" points="341,-369.98 344.5,-379.98 348,-369.98 341,-369.98"/>
</a>
</g>
</g>
<!-- Node8 -->
<g id="Node000008" class="node">
<title>Node8</title>
<g id="a_Node000008"><a xlink:href="classUOWGA__Ultimate.html" target="_top" xlink:title=" ">
<polygon fill="white" stroke="transparent" points="524.5,-329 408.5,-329 408.5,-235 524.5,-235 524.5,-329"/>
<text text-anchor="start" x="422.5" y="-317" font-family="Helvetica,sans-Serif" font-size="10.00">UOWGA_Ultimate</text>
<text text-anchor="start" x="412.5" y="-302" font-family="Helvetica,sans-Serif" font-size="10.00">#</text>
<text text-anchor="start" x="425.5" y="-302" font-family="Helvetica,sans-Serif" font-size="10.00">UltCost</text>
<text text-anchor="start" x="412.5" y="-287" font-family="Helvetica,sans-Serif" font-size="10.00">+</text>
<text text-anchor="start" x="425.5" y="-287" font-family="Helvetica,sans-Serif" font-size="10.00">UOWGA_Ultimate()</text>
<text text-anchor="start" x="412.5" y="-272" font-family="Helvetica,sans-Serif" font-size="10.00">+</text>
<text text-anchor="start" x="425.5" y="-272" font-family="Helvetica,sans-Serif" font-size="10.00">CheckCost()</text>
<text text-anchor="start" x="412.5" y="-257" font-family="Helvetica,sans-Serif" font-size="10.00">+</text>
<text text-anchor="start" x="425.5" y="-257" font-family="Helvetica,sans-Serif" font-size="10.00">ApplyCost()</text>
<text text-anchor="start" x="412.5" y="-242" font-family="Helvetica,sans-Serif" font-size="10.00">+</text>
<text text-anchor="start" x="425.5" y="-242" font-family="Helvetica,sans-Serif" font-size="10.00">ActivateAbility()</text>
<polygon fill="#666666" stroke="#666666" points="408.5,-312 408.5,-312 524.5,-312 524.5,-312 408.5,-312"/>
<polygon fill="#666666" stroke="#666666" points="408.5,-297 408.5,-297 423.5,-297 423.5,-297 408.5,-297"/>
<polygon fill="#666666" stroke="#666666" points="423.5,-297 423.5,-297 524.5,-297 524.5,-297 423.5,-297"/>
<polygon fill="none" stroke="#666666" points="408.5,-235 408.5,-329 524.5,-329 524.5,-235 408.5,-235"/>
</a>
</g>
</g>
<!-- Node1&#45;&gt;Node8 -->
<g id="edge7_Node000001_Node000008" class="edge">
<title>Node1&#45;&gt;Node8</title>
<g id="a_edge7_Node000001_Node000008"><a xlink:title=" ">
<path fill="none" stroke="#63b8ff" d="M375.45,-372.93C388.81,-359.73 404.74,-344 419.52,-329.41"/>
<polygon fill="none" stroke="#63b8ff" points="372.97,-370.46 368.31,-379.98 377.89,-375.44 372.97,-370.46"/>
</a>
</g>
</g>
<!-- Node2 -->
<g id="Node000002" class="node">
<title>Node2</title>
<g id="a_Node000002"><a xlink:title=" ">
<polygon fill="white" stroke="transparent" points="394.5,-514 294.5,-514 294.5,-465 394.5,-465 394.5,-514"/>
<text text-anchor="start" x="299.5" y="-501.5" font-family="Helvetica,sans-Serif" font-size="10.00">UGameplayAbility</text>
<text text-anchor="start" x="342.5" y="-486.5" font-family="Helvetica,sans-Serif" font-size="10.00"> </text>
<text text-anchor="start" x="342.5" y="-471.5" font-family="Helvetica,sans-Serif" font-size="10.00"> </text>
<polygon fill="#bfbfbf" stroke="#bfbfbf" points="294.5,-496.5 294.5,-496.5 394.5,-496.5 394.5,-496.5 294.5,-496.5"/>
<polygon fill="#bfbfbf" stroke="#bfbfbf" points="294.5,-481.5 294.5,-481.5 394.5,-481.5 394.5,-481.5 294.5,-481.5"/>
<polygon fill="none" stroke="#bfbfbf" points="294.5,-465 294.5,-514 394.5,-514 394.5,-465 294.5,-465"/>
</a>
</g>
</g>
<!-- Node2&#45;&gt;Node1 -->
<g id="edge1_Node000001_Node000002" class="edge">
<title>Node2&#45;&gt;Node1</title>
<g id="a_edge1_Node000001_Node000002"><a xlink:title=" ">
<path fill="none" stroke="#63b8ff" d="M344.5,-454.77C344.5,-446.17 344.5,-437.1 344.5,-429.12"/>
<polygon fill="none" stroke="#63b8ff" points="341,-454.94 344.5,-464.94 348,-454.94 341,-454.94"/>
</a>
</g>
</g>
<!-- Node4 -->
<g id="Node000004" class="node">
<title>Node4</title>
<g id="a_Node000004"><a xlink:href="classUOWGA__Active__GunFire.html" target="_top" xlink:title=" ">
<polygon fill="white" stroke="transparent" points="147,-184 0,-184 0,0 147,0 147,-184"/>
<text text-anchor="start" x="15" y="-172" font-family="Helvetica,sans-Serif" font-size="10.00">UOWGA_Active_GunFire</text>
<text text-anchor="start" x="4.5" y="-157" font-family="Helvetica,sans-Serif" font-size="10.00">+</text>
<text text-anchor="start" x="17.5" y="-157" font-family="Helvetica,sans-Serif" font-size="10.00">FireProjectilepMontage</text>
<text text-anchor="start" x="4.5" y="-142" font-family="Helvetica,sans-Serif" font-size="10.00">+</text>
<text text-anchor="start" x="17.5" y="-142" font-family="Helvetica,sans-Serif" font-size="10.00">DamageGameplayEffect</text>
<text text-anchor="start" x="4.5" y="-127" font-family="Helvetica,sans-Serif" font-size="10.00">+</text>
<text text-anchor="start" x="17.5" y="-127" font-family="Helvetica,sans-Serif" font-size="10.00">ProjectileClass</text>
<text text-anchor="start" x="4.5" y="-112" font-family="Helvetica,sans-Serif" font-size="10.00">#</text>
<text text-anchor="start" x="17.5" y="-112" font-family="Helvetica,sans-Serif" font-size="10.00">Range</text>
<text text-anchor="start" x="4.5" y="-97" font-family="Helvetica,sans-Serif" font-size="10.00">#</text>
<text text-anchor="start" x="17.5" y="-97" font-family="Helvetica,sans-Serif" font-size="10.00">Damage</text>
<text text-anchor="start" x="4.5" y="-82" font-family="Helvetica,sans-Serif" font-size="10.00">+</text>
<text text-anchor="start" x="17.5" y="-82" font-family="Helvetica,sans-Serif" font-size="10.00">UOWGA_Active_GunFire()</text>
<text text-anchor="start" x="4.5" y="-67" font-family="Helvetica,sans-Serif" font-size="10.00">+</text>
<text text-anchor="start" x="17.5" y="-67" font-family="Helvetica,sans-Serif" font-size="10.00">ActivateAbility()</text>
<text text-anchor="start" x="4.5" y="-52" font-family="Helvetica,sans-Serif" font-size="10.00">#</text>
<text text-anchor="start" x="17.5" y="-52" font-family="Helvetica,sans-Serif" font-size="10.00">OnCancelled()</text>
<text text-anchor="start" x="4.5" y="-37" font-family="Helvetica,sans-Serif" font-size="10.00">#</text>
<text text-anchor="start" x="17.5" y="-37" font-family="Helvetica,sans-Serif" font-size="10.00">OnCompleted()</text>
<text text-anchor="start" x="4.5" y="-22" font-family="Helvetica,sans-Serif" font-size="10.00">#</text>
<text text-anchor="start" x="17.5" y="-22" font-family="Helvetica,sans-Serif" font-size="10.00">EventReceived()</text>
<text text-anchor="start" x="4.5" y="-7" font-family="Helvetica,sans-Serif" font-size="10.00">#</text>
<text text-anchor="start" x="17.5" y="-7" font-family="Helvetica,sans-Serif" font-size="10.00">SpawnProjectile()</text>
<polygon fill="#bfbfbf" stroke="#bfbfbf" points="0.5,-167 0.5,-167 147.5,-167 147.5,-167 0.5,-167"/>
<polygon fill="#bfbfbf" stroke="#bfbfbf" points="0.5,-92 0.5,-92 15.5,-92 15.5,-92 0.5,-92"/>
<polygon fill="#bfbfbf" stroke="#bfbfbf" points="15.5,-92 15.5,-92 147.5,-92 147.5,-92 15.5,-92"/>
<polygon fill="none" stroke="#bfbfbf" points="0,0 0,-184 147,-184 147,0 0,0"/>
</a>
</g>
</g>
<!-- Node3&#45;&gt;Node4 -->
<g id="edge3_Node000003_Node000004" class="edge">
<title>Node3&#45;&gt;Node4</title>
<g id="a_edge3_Node000003_Node000004"><a xlink:title=" ">
<path fill="none" stroke="#63b8ff" d="M163.85,-211.78C156.99,-202.76 149.88,-193.42 142.8,-184.11"/>
<polygon fill="none" stroke="#63b8ff" points="161.23,-214.12 170.07,-219.96 166.8,-209.88 161.23,-214.12"/>
</a>
</g>
</g>
<!-- Node5 -->
<g id="Node000005" class="node">
<title>Node5</title>
<g id="a_Node000005"><a xlink:href="classUOWGA__FastZoom.html" target="_top" xlink:title=" ">
<polygon fill="white" stroke="transparent" points="268,-124 165,-124 165,-60 268,-60 268,-124"/>
<text text-anchor="start" x="170.5" y="-112" font-family="Helvetica,sans-Serif" font-size="10.00">UOWGA_FastZoom</text>
<text text-anchor="start" x="170" y="-97" font-family="Helvetica,sans-Serif" font-size="10.00">#</text>
<text text-anchor="start" x="183.5" y="-97" font-family="Helvetica,sans-Serif" font-size="10.00">ZoomFOV</text>
<text text-anchor="start" x="170" y="-82" font-family="Helvetica,sans-Serif" font-size="10.00">+</text>
<text text-anchor="start" x="183.5" y="-82" font-family="Helvetica,sans-Serif" font-size="10.00">ActivateAbility()</text>
<text text-anchor="start" x="170" y="-67" font-family="Helvetica,sans-Serif" font-size="10.00">+</text>
<text text-anchor="start" x="183.5" y="-67" font-family="Helvetica,sans-Serif" font-size="10.00">EndAbility()</text>
<polygon fill="#bfbfbf" stroke="#bfbfbf" points="165.5,-107 165.5,-107 268.5,-107 268.5,-107 165.5,-107"/>
<polygon fill="#bfbfbf" stroke="#bfbfbf" points="165.5,-92 165.5,-92 181.5,-92 181.5,-92 165.5,-92"/>
<polygon fill="#bfbfbf" stroke="#bfbfbf" points="181.5,-92 181.5,-92 268.5,-92 268.5,-92 181.5,-92"/>
<polygon fill="none" stroke="#bfbfbf" points="165,-60 165,-124 268,-124 268,-60 165,-60"/>
</a>
</g>
</g>
<!-- Node3&#45;&gt;Node5 -->
<g id="edge4_Node000003_Node000005" class="edge">
<title>Node3&#45;&gt;Node5</title>
<g id="a_edge4_Node000003_Node000005"><a xlink:title=" ">
<path fill="none" stroke="#63b8ff" d="M216.5,-209.68C216.5,-180.18 216.5,-147.5 216.5,-124.25"/>
<polygon fill="none" stroke="#63b8ff" points="213,-209.96 216.5,-219.96 220,-209.96 213,-209.96"/>
</a>
</g>
</g>
<!-- Node7 -->
<g id="Node000007" class="node">
<title>Node7</title>
<g id="a_Node000007"><a xlink:href="classUOWGA__Reload.html" target="_top" xlink:title=" ">
<polygon fill="white" stroke="transparent" points="410.5,-146.5 286.5,-146.5 286.5,-37.5 410.5,-37.5 410.5,-146.5"/>
<text text-anchor="start" x="309" y="-134" font-family="Helvetica,sans-Serif" font-size="10.00">UOWGA_Reload</text>
<text text-anchor="start" x="346.5" y="-119" font-family="Helvetica,sans-Serif" font-size="10.00"> </text>
<text text-anchor="start" x="290.5" y="-104" font-family="Helvetica,sans-Serif" font-size="10.00">+</text>
<text text-anchor="start" x="303.5" y="-104" font-family="Helvetica,sans-Serif" font-size="10.00">SetCurrentMontage()</text>
<text text-anchor="start" x="290.5" y="-89" font-family="Helvetica,sans-Serif" font-size="10.00">+</text>
<text text-anchor="start" x="303.5" y="-89" font-family="Helvetica,sans-Serif" font-size="10.00">CanActivateAbility()</text>
<text text-anchor="start" x="290.5" y="-74" font-family="Helvetica,sans-Serif" font-size="10.00">+</text>
<text text-anchor="start" x="303.5" y="-74" font-family="Helvetica,sans-Serif" font-size="10.00">ActivateAbility()</text>
<text text-anchor="start" x="290.5" y="-59" font-family="Helvetica,sans-Serif" font-size="10.00">+</text>
<text text-anchor="start" x="303.5" y="-59" font-family="Helvetica,sans-Serif" font-size="10.00">EndAbility()</text>
<text text-anchor="start" x="290.5" y="-44" font-family="Helvetica,sans-Serif" font-size="10.00">+</text>
<text text-anchor="start" x="303.5" y="-44" font-family="Helvetica,sans-Serif" font-size="10.00">Reload()</text>
<polygon fill="#bfbfbf" stroke="#bfbfbf" points="286.5,-129 286.5,-129 410.5,-129 410.5,-129 286.5,-129"/>
<polygon fill="#bfbfbf" stroke="#bfbfbf" points="286.5,-114 286.5,-114 410.5,-114 410.5,-114 286.5,-114"/>
<polygon fill="none" stroke="#bfbfbf" points="286.5,-37.5 286.5,-146.5 410.5,-146.5 410.5,-37.5 286.5,-37.5"/>
</a>
</g>
</g>
<!-- Node6&#45;&gt;Node7 -->
<g id="edge6_Node000006_Node000007" class="edge">
<title>Node6&#45;&gt;Node7</title>
<g id="a_edge6_Node000006_Node000007"><a xlink:title=" ">
<path fill="none" stroke="#63b8ff" d="M345.22,-247.1C345.82,-219.12 346.67,-178.88 347.36,-146.54"/>
<polygon fill="none" stroke="#63b8ff" points="341.72,-247.12 345.01,-257.19 348.72,-247.27 341.72,-247.12"/>
</a>
</g>
</g>
</g>
</svg>
