<?xml version="1.0" encoding="UTF-8" standalone="no"?>
<!DOCTYPE svg PUBLIC "-//W3C//DTD SVG 1.1//EN"
 "http://www.w3.org/Graphics/SVG/1.1/DTD/svg11.dtd">
<!-- Generated by graphviz version 2.43.0 (0)
 -->
<!-- Title: UOWCooldownGameplayEffect Pages: 1 -->
<svg width="188pt" height="227pt"
 viewBox="0.00 0.00 188.00 227.00" xmlns="http://www.w3.org/2000/svg" xmlns:xlink="http://www.w3.org/1999/xlink">
<g id="graph0" class="graph" transform="scale(1 1) rotate(0) translate(4 223)">
<title>UOWCooldownGameplayEffect</title>
<!-- Node1 -->
<g id="Node000001" class="node">
<title>Node1</title>
<g id="a_Node000001"><a xlink:title=" ">
<polygon fill="#999999" stroke="transparent" points="180,-49 0,-49 0,0 180,0 180,-49"/>
<text text-anchor="start" x="14.5" y="-36.5" font-family="Helvetica,sans-Serif" font-size="10.00">UOWCooldownGameplayEffect</text>
<text text-anchor="start" x="88" y="-21.5" font-family="Helvetica,sans-Serif" font-size="10.00"> </text>
<text text-anchor="start" x="4" y="-6.5" font-family="Helvetica,sans-Serif" font-size="10.00">+</text>
<text text-anchor="start" x="17" y="-6.5" font-family="Helvetica,sans-Serif" font-size="10.00">UOWCooldownGameplayEffect()</text>
<polygon fill="#666666" stroke="#666666" points="0,-31.5 0,-31.5 180,-31.5 180,-31.5 0,-31.5"/>
<polygon fill="#666666" stroke="#666666" points="0,-16.5 0,-16.5 180,-16.5 180,-16.5 0,-16.5"/>
<polygon fill="none" stroke="#666666" points="0,0 0,-49 180,-49 180,0 0,0"/>
</a>
</g>
</g>
<!-- Node2 -->
<g id="Node000002" class="node">
<title>Node2</title>
<g id="a_Node000002"><a xlink:href="classUOWGameplayEffect.html" target="_top" xlink:title=" ">
<polygon fill="white" stroke="transparent" points="146.5,-134 33.5,-134 33.5,-85 146.5,-85 146.5,-134"/>
<text text-anchor="start" x="39" y="-121.5" font-family="Helvetica,sans-Serif" font-size="10.00">UOWGameplayEffect</text>
<text text-anchor="start" x="88.5" y="-106.5" font-family="Helvetica,sans-Serif" font-size="10.00"> </text>
<text text-anchor="start" x="88.5" y="-91.5" font-family="Helvetica,sans-Serif" font-size="10.00"> </text>
<polygon fill="#bfbfbf" stroke="#bfbfbf" points="34,-116.5 34,-116.5 147,-116.5 147,-116.5 34,-116.5"/>
<polygon fill="#bfbfbf" stroke="#bfbfbf" points="34,-101.5 34,-101.5 147,-101.5 147,-101.5 34,-101.5"/>
<polygon fill="none" stroke="#bfbfbf" points="33.5,-85 33.5,-134 146.5,-134 146.5,-85 33.5,-85"/>
</a>
</g>
</g>
<!-- Node2&#45;&gt;Node1 -->
<g id="edge1_Node000001_Node000002" class="edge">
<title>Node2&#45;&gt;Node1</title>
<g id="a_edge1_Node000001_Node000002"><a xlink:title=" ">
<path fill="none" stroke="#63b8ff" d="M90,-74.77C90,-66.17 90,-57.1 90,-49.12"/>
<polygon fill="none" stroke="#63b8ff" points="86.5,-74.94 90,-84.94 93.5,-74.94 86.5,-74.94"/>
</a>
</g>
</g>
<!-- Node3 -->
<g id="Node000003" class="node">
<title>Node3</title>
<g id="a_Node000003"><a xlink:title=" ">
<polygon fill="white" stroke="transparent" points="138,-219 42,-219 42,-170 138,-170 138,-219"/>
<text text-anchor="start" x="47" y="-206.5" font-family="Helvetica,sans-Serif" font-size="10.00">UGameplayEffect</text>
<text text-anchor="start" x="88" y="-191.5" font-family="Helvetica,sans-Serif" font-size="10.00"> </text>
<text text-anchor="start" x="88" y="-176.5" font-family="Helvetica,sans-Serif" font-size="10.00"> </text>
<polygon fill="#bfbfbf" stroke="#bfbfbf" points="42,-201.5 42,-201.5 138,-201.5 138,-201.5 42,-201.5"/>
<polygon fill="#bfbfbf" stroke="#bfbfbf" points="42,-186.5 42,-186.5 138,-186.5 138,-186.5 42,-186.5"/>
<polygon fill="none" stroke="#bfbfbf" points="42,-170 42,-219 138,-219 138,-170 42,-170"/>
</a>
</g>
</g>
<!-- Node3&#45;&gt;Node2 -->
<g id="edge2_Node000002_Node000003" class="edge">
<title>Node3&#45;&gt;Node2</title>
<g id="a_edge2_Node000002_Node000003"><a xlink:title=" ">
<path fill="none" stroke="#63b8ff" d="M90,-159.77C90,-151.17 90,-142.1 90,-134.12"/>
<polygon fill="none" stroke="#63b8ff" points="86.5,-159.94 90,-169.94 93.5,-159.94 86.5,-159.94"/>
</a>
</g>
</g>
</g>
</svg>
