<?xml version="1.0" encoding="UTF-8" standalone="no"?>
<!DOCTYPE svg PUBLIC "-//W3C//DTD SVG 1.1//EN"
 "http://www.w3.org/Graphics/SVG/1.1/DTD/svg11.dtd">
<!-- Generated by graphviz version 2.43.0 (0)
 -->
<!-- Title: UOWInputData Pages: 1 -->
<svg width="142pt" height="157pt"
 viewBox="0.00 0.00 142.00 157.00" xmlns="http://www.w3.org/2000/svg" xmlns:xlink="http://www.w3.org/1999/xlink">
<g id="graph0" class="graph" transform="scale(1 1) rotate(0) translate(4 153)">
<title>UOWInputData</title>
<!-- Node1 -->
<g id="Node000001" class="node">
<title>Node1</title>
<g id="a_Node000001"><a xlink:title=" ">
<polygon fill="#999999" stroke="transparent" points="134,-64 0,-64 0,0 134,0 134,-64"/>
<text text-anchor="start" x="30.5" y="-52" font-family="Helvetica,sans-Serif" font-size="10.00">UOWInputData</text>
<text text-anchor="start" x="4" y="-37" font-family="Helvetica,sans-Serif" font-size="10.00">+</text>
<text text-anchor="start" x="17" y="-37" font-family="Helvetica,sans-Serif" font-size="10.00">InputMappingContext</text>
<text text-anchor="start" x="4" y="-22" font-family="Helvetica,sans-Serif" font-size="10.00">+</text>
<text text-anchor="start" x="17" y="-22" font-family="Helvetica,sans-Serif" font-size="10.00">InputActions</text>
<text text-anchor="start" x="4" y="-7" font-family="Helvetica,sans-Serif" font-size="10.00">+</text>
<text text-anchor="start" x="17" y="-7" font-family="Helvetica,sans-Serif" font-size="10.00">FindInputActionByTag()</text>
<polygon fill="#666666" stroke="#666666" points="0,-47 0,-47 134,-47 134,-47 0,-47"/>
<polygon fill="#666666" stroke="#666666" points="0,-17 0,-17 15,-17 15,-17 0,-17"/>
<polygon fill="#666666" stroke="#666666" points="15,-17 15,-17 134,-17 134,-17 15,-17"/>
<polygon fill="none" stroke="#666666" points="0,0 0,-64 134,-64 134,0 0,0"/>
</a>
</g>
</g>
<!-- Node2 -->
<g id="Node000002" class="node">
<title>Node2</title>
<g id="a_Node000002"><a xlink:title=" ">
<polygon fill="white" stroke="transparent" points="101,-149 33,-149 33,-100 101,-100 101,-149"/>
<text text-anchor="start" x="38" y="-136.5" font-family="Helvetica,sans-Serif" font-size="10.00">UDataAsset</text>
<text text-anchor="start" x="65" y="-121.5" font-family="Helvetica,sans-Serif" font-size="10.00"> </text>
<text text-anchor="start" x="65" y="-106.5" font-family="Helvetica,sans-Serif" font-size="10.00"> </text>
<polygon fill="#bfbfbf" stroke="#bfbfbf" points="33,-131.5 33,-131.5 101,-131.5 101,-131.5 33,-131.5"/>
<polygon fill="#bfbfbf" stroke="#bfbfbf" points="33,-116.5 33,-116.5 101,-116.5 101,-116.5 33,-116.5"/>
<polygon fill="none" stroke="#bfbfbf" points="33,-100 33,-149 101,-149 101,-100 33,-100"/>
</a>
</g>
</g>
<!-- Node2&#45;&gt;Node1 -->
<g id="edge1_Node000001_Node000002" class="edge">
<title>Node2&#45;&gt;Node1</title>
<g id="a_edge1_Node000001_Node000002"><a xlink:title=" ">
<path fill="none" stroke="#63b8ff" d="M67,-89.54C67,-81.2 67,-72.31 67,-64.11"/>
<polygon fill="none" stroke="#63b8ff" points="63.5,-89.72 67,-99.72 70.5,-89.72 63.5,-89.72"/>
</a>
</g>
</g>
</g>
</svg>
