<?xml version="1.0" encoding="UTF-8" standalone="no"?>
<!DOCTYPE svg PUBLIC "-//W3C//DTD SVG 1.1//EN"
 "http://www.w3.org/Graphics/SVG/1.1/DTD/svg11.dtd">
<!-- Generated by graphviz version 2.43.0 (0)
 -->
<!-- Title: UOWAbilitySet Pages: 1 -->
<svg width="159pt" height="187pt"
 viewBox="0.00 0.00 159.00 187.00" xmlns="http://www.w3.org/2000/svg" xmlns:xlink="http://www.w3.org/1999/xlink">
<g id="graph0" class="graph" transform="scale(1 1) rotate(0) translate(4 183)">
<title>UOWAbilitySet</title>
<!-- Node1 -->
<g id="Node000001" class="node">
<title>Node1</title>
<g id="a_Node000001"><a xlink:title=" ">
<polygon fill="#999999" stroke="transparent" points="151,-94 0,-94 0,0 151,0 151,-94"/>
<text text-anchor="start" x="40" y="-82" font-family="Helvetica,sans-Serif" font-size="10.00">UOWAbilitySet</text>
<text text-anchor="start" x="4.5" y="-67" font-family="Helvetica,sans-Serif" font-size="10.00">+</text>
<text text-anchor="start" x="17.5" y="-67" font-family="Helvetica,sans-Serif" font-size="10.00">GrantedGameplayAbilities</text>
<text text-anchor="start" x="4.5" y="-52" font-family="Helvetica,sans-Serif" font-size="10.00">+</text>
<text text-anchor="start" x="17.5" y="-52" font-family="Helvetica,sans-Serif" font-size="10.00">GrantedGameplayEffects</text>
<text text-anchor="start" x="4.5" y="-37" font-family="Helvetica,sans-Serif" font-size="10.00">+</text>
<text text-anchor="start" x="17.5" y="-37" font-family="Helvetica,sans-Serif" font-size="10.00">GrantedAttributes</text>
<text text-anchor="start" x="4.5" y="-22" font-family="Helvetica,sans-Serif" font-size="10.00">+</text>
<text text-anchor="start" x="17.5" y="-22" font-family="Helvetica,sans-Serif" font-size="10.00">UOWAbilitySet()</text>
<text text-anchor="start" x="4.5" y="-7" font-family="Helvetica,sans-Serif" font-size="10.00">+</text>
<text text-anchor="start" x="17.5" y="-7" font-family="Helvetica,sans-Serif" font-size="10.00">GiveToAbilitySystem()</text>
<polygon fill="#666666" stroke="#666666" points="0.5,-77 0.5,-77 151.5,-77 151.5,-77 0.5,-77"/>
<polygon fill="#666666" stroke="#666666" points="0.5,-32 0.5,-32 15.5,-32 15.5,-32 0.5,-32"/>
<polygon fill="#666666" stroke="#666666" points="15.5,-32 15.5,-32 151.5,-32 151.5,-32 15.5,-32"/>
<polygon fill="none" stroke="#666666" points="0,0 0,-94 151,-94 151,0 0,0"/>
</a>
</g>
</g>
<!-- Node2 -->
<g id="Node000002" class="node">
<title>Node2</title>
<g id="a_Node000002"><a xlink:title=" ">
<polygon fill="white" stroke="transparent" points="129,-179 22,-179 22,-130 129,-130 129,-179"/>
<text text-anchor="start" x="27.5" y="-166.5" font-family="Helvetica,sans-Serif" font-size="10.00">UPrimaryDataAsset</text>
<text text-anchor="start" x="74" y="-151.5" font-family="Helvetica,sans-Serif" font-size="10.00"> </text>
<text text-anchor="start" x="74" y="-136.5" font-family="Helvetica,sans-Serif" font-size="10.00"> </text>
<polygon fill="#bfbfbf" stroke="#bfbfbf" points="22.5,-161.5 22.5,-161.5 129.5,-161.5 129.5,-161.5 22.5,-161.5"/>
<polygon fill="#bfbfbf" stroke="#bfbfbf" points="22.5,-146.5 22.5,-146.5 129.5,-146.5 129.5,-146.5 22.5,-146.5"/>
<polygon fill="none" stroke="#bfbfbf" points="22,-130 22,-179 129,-179 129,-130 22,-130"/>
</a>
</g>
</g>
<!-- Node2&#45;&gt;Node1 -->
<g id="edge1_Node000001_Node000002" class="edge">
<title>Node2&#45;&gt;Node1</title>
<g id="a_edge1_Node000001_Node000002"><a xlink:title=" ">
<path fill="none" stroke="#63b8ff" d="M75.5,-119.61C75.5,-111.48 75.5,-102.66 75.5,-94.08"/>
<polygon fill="none" stroke="#63b8ff" points="72,-119.82 75.5,-129.82 79,-119.82 72,-119.82"/>
</a>
</g>
</g>
</g>
</svg>
