<?xml version="1.0" encoding="UTF-8" standalone="no"?>
<!DOCTYPE svg PUBLIC "-//W3C//DTD SVG 1.1//EN"
 "http://www.w3.org/Graphics/SVG/1.1/DTD/svg11.dtd">
<!-- Generated by graphviz version 2.43.0 (0)
 -->
<!-- Title: 그래픽컬한 클래스 계통도 Pages: 1 -->
<svg width="583pt" height="138pt"
 viewBox="0.00 0.00 583.00 138.00" xmlns="http://www.w3.org/2000/svg" xmlns:xlink="http://www.w3.org/1999/xlink">
<g id="graph0" class="graph" transform="scale(1 1) rotate(0) translate(4 134)">
<title>그래픽컬한 클래스 계통도</title>
<!-- Node0 -->
<g id="Node000000" class="node">
<title>Node0</title>
<g id="a_Node000000"><a xlink:title=" ">
<polygon fill="#e0e0e0" stroke="#999999" points="106,-56 0,-56 0,-37 106,-37 106,-56"/>
<text text-anchor="middle" x="53" y="-44" font-family="Helvetica,sans-Serif" font-size="10.00">UGameplayAbility</text>
</a>
</g>
</g>
<!-- Node1 -->
<g id="Node000001" class="node">
<title>Node1</title>
<g id="a_Node000001"><a xlink:href="classUOWGameplayAbility.html" target="_top" xlink:title=" ">
<polygon fill="white" stroke="#666666" points="265,-56 142,-56 142,-37 265,-37 265,-56"/>
<text text-anchor="middle" x="203.5" y="-44" font-family="Helvetica,sans-Serif" font-size="10.00">UOWGameplayAbility</text>
</a>
</g>
</g>
<!-- Node0&#45;&gt;Node1 -->
<g id="edge12_Node000000_Node000001" class="edge">
<title>Node0&#45;&gt;Node1</title>
<g id="a_edge12_Node000000_Node000001"><a xlink:title=" ">
<path fill="none" stroke="#63b8ff" d="M116.51,-46.5C124.95,-46.5 133.59,-46.5 141.99,-46.5"/>
<polygon fill="#63b8ff" stroke="#63b8ff" points="116.36,-43 106.36,-46.5 116.36,-50 116.36,-43"/>
</a>
</g>
</g>
<!-- Node2 -->
<g id="Node000002" class="node">
<title>Node2</title>
<g id="a_Node000002"><a xlink:href="classUOWGA__Active.html" target="_top" xlink:title=" ">
<polygon fill="white" stroke="#666666" points="399,-93 307,-93 307,-74 399,-74 399,-93"/>
<text text-anchor="middle" x="353" y="-81" font-family="Helvetica,sans-Serif" font-size="10.00">UOWGA_Active</text>
</a>
</g>
</g>
<!-- Node1&#45;&gt;Node2 -->
<g id="edge13_Node000001_Node000002" class="edge">
<title>Node1&#45;&gt;Node2</title>
<g id="a_edge13_Node000001_Node000002"><a xlink:title=" ">
<path fill="none" stroke="#63b8ff" d="M252.31,-58.49C272.26,-63.5 295.1,-69.23 313.89,-73.94"/>
<polygon fill="#63b8ff" stroke="#63b8ff" points="253.04,-55.07 242.48,-56.03 251.33,-61.86 253.04,-55.07"/>
</a>
</g>
</g>
<!-- Node5 -->
<g id="Node000005" class="node">
<title>Node5</title>
<g id="a_Node000005"><a xlink:href="classUOWGA__Passive.html" target="_top" xlink:title=" ">
<polygon fill="white" stroke="#666666" points="402,-56 304,-56 304,-37 402,-37 402,-56"/>
<text text-anchor="middle" x="353" y="-44" font-family="Helvetica,sans-Serif" font-size="10.00">UOWGA_Passive</text>
</a>
</g>
</g>
<!-- Node1&#45;&gt;Node5 -->
<g id="edge16_Node000001_Node000005" class="edge">
<title>Node1&#45;&gt;Node5</title>
<g id="a_edge16_Node000001_Node000005"><a xlink:title=" ">
<path fill="none" stroke="#63b8ff" d="M275.37,-46.5C285.04,-46.5 294.77,-46.5 303.9,-46.5"/>
<polygon fill="#63b8ff" stroke="#63b8ff" points="275.35,-43 265.35,-46.5 275.35,-50 275.35,-43"/>
</a>
</g>
</g>
<!-- Node7 -->
<g id="Node000007" class="node">
<title>Node7</title>
<g id="a_Node000007"><a xlink:href="classUOWGA__Ultimate.html" target="_top" xlink:title=" ">
<polygon fill="white" stroke="#666666" points="405,-19 301,-19 301,0 405,0 405,-19"/>
<text text-anchor="middle" x="353" y="-7" font-family="Helvetica,sans-Serif" font-size="10.00">UOWGA_Ultimate</text>
</a>
</g>
</g>
<!-- Node1&#45;&gt;Node7 -->
<g id="edge18_Node000001_Node000007" class="edge">
<title>Node1&#45;&gt;Node7</title>
<g id="a_edge18_Node000001_Node000007"><a xlink:title=" ">
<path fill="none" stroke="#63b8ff" d="M252.31,-34.51C272.26,-29.5 295.1,-23.77 313.89,-19.06"/>
<polygon fill="#63b8ff" stroke="#63b8ff" points="251.33,-31.14 242.48,-36.97 253.04,-37.93 251.33,-31.14"/>
</a>
</g>
</g>
<!-- Node3 -->
<g id="Node000003" class="node">
<title>Node3</title>
<g id="a_Node000003"><a xlink:href="classUOWGA__Active__GunFire.html" target="_top" xlink:title=" ">
<polygon fill="white" stroke="#666666" points="575,-130 441,-130 441,-111 575,-111 575,-130"/>
<text text-anchor="middle" x="508" y="-118" font-family="Helvetica,sans-Serif" font-size="10.00">UOWGA_Active_GunFire</text>
</a>
</g>
</g>
<!-- Node2&#45;&gt;Node3 -->
<g id="edge14_Node000002_Node000003" class="edge">
<title>Node2&#45;&gt;Node3</title>
<g id="a_edge14_Node000002_Node000003"><a xlink:title=" ">
<path fill="none" stroke="#63b8ff" d="M403.31,-95.43C424.07,-100.44 447.89,-106.21 467.47,-110.94"/>
<polygon fill="#63b8ff" stroke="#63b8ff" points="403.94,-91.98 393.4,-93.03 402.3,-98.78 403.94,-91.98"/>
</a>
</g>
</g>
<!-- Node4 -->
<g id="Node000004" class="node">
<title>Node4</title>
<g id="a_Node000004"><a xlink:href="classUOWGA__FastZoom.html" target="_top" xlink:title=" ">
<polygon fill="white" stroke="#666666" points="562.5,-93 453.5,-93 453.5,-74 562.5,-74 562.5,-93"/>
<text text-anchor="middle" x="508" y="-81" font-family="Helvetica,sans-Serif" font-size="10.00">UOWGA_FastZoom</text>
</a>
</g>
</g>
<!-- Node2&#45;&gt;Node4 -->
<g id="edge15_Node000002_Node000004" class="edge">
<title>Node2&#45;&gt;Node4</title>
<g id="a_edge15_Node000002_Node000004"><a xlink:title=" ">
<path fill="none" stroke="#63b8ff" d="M409.3,-83.5C423.65,-83.5 439.07,-83.5 453.33,-83.5"/>
<polygon fill="#63b8ff" stroke="#63b8ff" points="409.08,-80 399.08,-83.5 409.08,-87 409.08,-80"/>
</a>
</g>
</g>
<!-- Node6 -->
<g id="Node000006" class="node">
<title>Node6</title>
<g id="a_Node000006"><a xlink:href="classUOWGA__Reload.html" target="_top" xlink:title=" ">
<polygon fill="white" stroke="#666666" points="555.5,-56 460.5,-56 460.5,-37 555.5,-37 555.5,-56"/>
<text text-anchor="middle" x="508" y="-44" font-family="Helvetica,sans-Serif" font-size="10.00">UOWGA_Reload</text>
</a>
</g>
</g>
<!-- Node5&#45;&gt;Node6 -->
<g id="edge17_Node000005_Node000006" class="edge">
<title>Node5&#45;&gt;Node6</title>
<g id="a_edge17_Node000005_Node000006"><a xlink:title=" ">
<path fill="none" stroke="#63b8ff" d="M412.63,-46.5C428.47,-46.5 445.39,-46.5 460.47,-46.5"/>
<polygon fill="#63b8ff" stroke="#63b8ff" points="412.41,-43 402.41,-46.5 412.41,-50 412.41,-43"/>
</a>
</g>
</g>
</g>
</svg>
