<?xml version="1.0" encoding="UTF-8" standalone="no"?>
<!DOCTYPE svg PUBLIC "-//W3C//DTD SVG 1.1//EN"
 "http://www.w3.org/Graphics/SVG/1.1/DTD/svg11.dtd">
<!-- Generated by graphviz version 2.43.0 (0)
 -->
<!-- Title: 그래픽컬한 클래스 계통도 Pages: 1 -->
<svg width="468pt" height="64pt"
 viewBox="0.00 0.00 468.00 64.00" xmlns="http://www.w3.org/2000/svg" xmlns:xlink="http://www.w3.org/1999/xlink">
<g id="graph0" class="graph" transform="scale(1 1) rotate(0) translate(4 60)">
<title>그래픽컬한 클래스 계통도</title>
<!-- Node0 -->
<g id="Node000000" class="node">
<title>Node0</title>
<g id="a_Node000000"><a xlink:title=" ">
<polygon fill="#e0e0e0" stroke="#999999" points="102,-37 0,-37 0,-18 102,-18 102,-37"/>
<text text-anchor="middle" x="51" y="-25" font-family="Helvetica,sans-Serif" font-size="10.00">UGameplayEffect</text>
</a>
</g>
</g>
<!-- Node1 -->
<g id="Node000001" class="node">
<title>Node1</title>
<g id="a_Node000001"><a xlink:href="classUOWGameplayEffect.html" target="_top" xlink:title=" ">
<polygon fill="white" stroke="#666666" points="257,-37 138,-37 138,-18 257,-18 257,-37"/>
<text text-anchor="middle" x="197.5" y="-25" font-family="Helvetica,sans-Serif" font-size="10.00">UOWGameplayEffect</text>
</a>
</g>
</g>
<!-- Node0&#45;&gt;Node1 -->
<g id="edge19_Node000000_Node000001" class="edge">
<title>Node0&#45;&gt;Node1</title>
<g id="a_edge19_Node000000_Node000001"><a xlink:title=" ">
<path fill="none" stroke="#63b8ff" d="M112.28,-27.5C120.71,-27.5 129.36,-27.5 137.77,-27.5"/>
<polygon fill="#63b8ff" stroke="#63b8ff" points="112.13,-24 102.13,-27.5 112.13,-31 112.13,-24"/>
</a>
</g>
</g>
<!-- Node2 -->
<g id="Node000002" class="node">
<title>Node2</title>
<g id="a_Node000002"><a xlink:href="classUOWCooldownGameplayEffect.html" target="_top" xlink:title=" ">
<polygon fill="white" stroke="#666666" points="460,-56 293,-56 293,-37 460,-37 460,-56"/>
<text text-anchor="middle" x="376.5" y="-44" font-family="Helvetica,sans-Serif" font-size="10.00">UOWCooldownGameplayEffect</text>
</a>
</g>
</g>
<!-- Node1&#45;&gt;Node2 -->
<g id="edge20_Node000001_Node000002" class="edge">
<title>Node1&#45;&gt;Node2</title>
<g id="a_edge20_Node000001_Node000002"><a xlink:title=" ">
<path fill="none" stroke="#63b8ff" d="M267.46,-34.9C275.78,-35.8 284.36,-36.72 292.86,-37.63"/>
<polygon fill="#63b8ff" stroke="#63b8ff" points="267.75,-31.41 257.44,-33.83 267.01,-38.37 267.75,-31.41"/>
</a>
</g>
</g>
<!-- Node3 -->
<g id="Node000003" class="node">
<title>Node3</title>
<g id="a_Node000003"><a xlink:href="classUOWGE__Cost.html" target="_top" xlink:title=" ">
<polygon fill="white" stroke="#666666" points="417.5,-19 335.5,-19 335.5,0 417.5,0 417.5,-19"/>
<text text-anchor="middle" x="376.5" y="-7" font-family="Helvetica,sans-Serif" font-size="10.00">UOWGE_Cost</text>
</a>
</g>
</g>
<!-- Node1&#45;&gt;Node3 -->
<g id="edge21_Node000001_Node000003" class="edge">
<title>Node1&#45;&gt;Node3</title>
<g id="a_edge21_Node000001_Node000003"><a xlink:title=" ">
<path fill="none" stroke="#63b8ff" d="M267.48,-20.49C290.42,-18.15 315.2,-15.63 335.24,-13.59"/>
<polygon fill="#63b8ff" stroke="#63b8ff" points="267.03,-17.01 257.44,-21.51 267.74,-23.98 267.03,-17.01"/>
</a>
</g>
</g>
</g>
</svg>
